<mxfile host="65bd71144e">
    <diagram id="OUo9aKHe7gE_0e0GHzDB" name="Страница 1">
        <mxGraphModel dx="887" dy="420" grid="1" gridSize="10" guides="1" tooltips="1" connect="1" arrows="1" fold="1" page="1" pageScale="1" pageWidth="827" pageHeight="1169" math="0" shadow="0">
            <root>
                <mxCell id="0"/>
                <mxCell id="1" parent="0"/>
                <mxCell id="5" value="&lt;div style=&quot;text-align: justify;&quot;&gt;&lt;b style=&quot;font-size: 20px; background-color: initial;&quot;&gt;&amp;nbsp; &amp;nbsp; &amp;nbsp; Забыли пароль? &lt;span style=&quot;white-space: pre;&quot;&gt;&#9;&lt;/span&gt;&lt;span style=&quot;white-space: pre;&quot;&gt;&#9;&lt;/span&gt;&lt;span style=&quot;white-space: pre;&quot;&gt;&#9;&lt;span style=&quot;white-space: pre;&quot;&gt;&#9;&lt;/span&gt; &lt;/span&gt;Регистрация&lt;/b&gt;&lt;/div&gt;" style="html=1;shadow=0;dashed=0;shape=mxgraph.bootstrap.rrect;rSize=5;strokeColor=#666666;html=1;whiteSpace=wrap;fillColor=#D9D9D9;verticalAlign=bottom;align=left;spacing=20;spacingBottom=0;fontSize=14;gradientColor=#404040;gradientDirection=west;" parent="1" vertex="1">
                    <mxGeometry width="810" height="540" as="geometry"/>
                </mxCell>
                <mxCell id="6" value="&lt;span style=&quot;font-size: 20px;&quot;&gt;&lt;b&gt;Виртуальный офис&lt;/b&gt;&lt;/span&gt;" style="html=1;shadow=0;dashed=0;shape=mxgraph.bootstrap.topButton;rSize=5;perimeter=none;whiteSpace=wrap;fillColor=#f5f5f5;strokeColor=#666666;resizeWidth=1;fontSize=18;align=center;spacing=20;gradientColor=#FF99FF;fontColor=#000000;gradientDirection=east;" parent="5" vertex="1">
                    <mxGeometry width="810" height="50" relative="1" as="geometry"/>
                </mxCell>
                <mxCell id="24" value="&lt;u style=&quot;font-size: 20px;&quot;&gt;&lt;font color=&quot;#ff99ff&quot;&gt;Авторизация&lt;/font&gt;&lt;/u&gt;" style="html=1;shadow=0;dashed=0;shape=mxgraph.bootstrap.rrect;rSize=5;strokeColor=#FF99FF;strokeWidth=1;fillColor=none;whiteSpace=wrap;align=center;verticalAlign=middle;spacingLeft=0;fontStyle=0;fontSize=20;spacing=5;gradientColor=#b3b3b3;fontColor=#000000;" parent="5" vertex="1">
                    <mxGeometry x="50" y="110" width="190" height="28.8" as="geometry"/>
                </mxCell>
                <mxCell id="46" value="" style="html=1;shadow=0;dashed=0;shape=mxgraph.bootstrap.rrect;rSize=5;fillColor=none;strokeColor=#FFCCFF;align=left;spacing=15;fontSize=14;fontColor=#6C767D;" parent="5" vertex="1">
                    <mxGeometry width="330" height="30" relative="1" as="geometry">
                        <mxPoint x="50" y="200" as="offset"/>
                    </mxGeometry>
                </mxCell>
                <mxCell id="49" value="" style="html=1;shadow=0;dashed=0;shape=mxgraph.bootstrap.rrect;rSize=5;fillColor=none;strokeColor=#FFCCFF;align=left;spacing=15;fontSize=14;fontColor=#6C767D;" parent="5" vertex="1">
                    <mxGeometry width="330" height="30" relative="1" as="geometry">
                        <mxPoint x="50" y="310" as="offset"/>
                    </mxGeometry>
                </mxCell>
                <mxCell id="51" value="Войти" style="html=1;shadow=0;dashed=0;shape=mxgraph.bootstrap.rrect;rSize=5;fillColor=#952499;strokeColor=none;align=center;fontSize=16;fontColor=#FFFFFF;" parent="5" vertex="1">
                    <mxGeometry width="70" height="40" relative="1" as="geometry">
                        <mxPoint x="50" y="380" as="offset"/>
                    </mxGeometry>
                </mxCell>
                <mxCell id="53" value="E-mail / Телефон:" style="fillColor=none;strokeColor=none;align=left;fontSize=16;fontColor=#FFCCFF;" parent="5" vertex="1">
                    <mxGeometry width="260" height="40" relative="1" as="geometry">
                        <mxPoint x="50" y="160" as="offset"/>
                    </mxGeometry>
                </mxCell>
                <mxCell id="54" value="Мы не передадим Ваш e-mail третьим лицам" style="fillColor=none;strokeColor=none;align=left;spacing=2;fontSize=16;fontColor=#B8A5CF;" parent="5" vertex="1">
                    <mxGeometry width="350" height="30" relative="1" as="geometry">
                        <mxPoint x="50" y="230" as="offset"/>
                    </mxGeometry>
                </mxCell>
                <mxCell id="162" value="Пароль:" style="fillColor=none;strokeColor=none;align=left;fontSize=16;fontColor=#FFCCFF;" parent="5" vertex="1">
                    <mxGeometry width="260" height="40" relative="1" as="geometry">
                        <mxPoint x="50" y="270" as="offset"/>
                    </mxGeometry>
                </mxCell>
                <mxCell id="72" value="&lt;blockquote style=&quot;margin: 0 0 0 40px; border: none; padding: 0px;&quot;&gt;&lt;blockquote style=&quot;margin: 0 0 0 40px; border: none; padding: 0px;&quot;&gt;&lt;div style=&quot;text-align: justify;&quot;&gt;&lt;span style=&quot;font-size: 20px;&quot;&gt;&lt;b&gt;&lt;font color=&quot;#990099&quot;&gt;&lt;span style=&quot;white-space: pre;&quot;&gt;&#9;&lt;/span&gt;&lt;span style=&quot;white-space: pre;&quot;&gt;&#9;&lt;/span&gt;&lt;span style=&quot;white-space: pre;&quot;&gt;&#9;&lt;/span&gt;&lt;span style=&quot;white-space: pre;&quot;&gt;&#9;&lt;/span&gt;&lt;span style=&quot;white-space: pre;&quot;&gt;&#9;&lt;/span&gt;&lt;span style=&quot;white-space: pre;&quot;&gt;&#9;&lt;/span&gt;&lt;span style=&quot;white-space: pre;&quot;&gt;&#9;&lt;/span&gt;&lt;span style=&quot;white-space: pre;&quot;&gt;&#9;&lt;/span&gt;&lt;span style=&quot;white-space: pre;&quot;&gt;&#9;&lt;/span&gt;&lt;span style=&quot;white-space: pre;&quot;&gt;&#9;&lt;/span&gt;&lt;span style=&quot;white-space: pre;&quot;&gt;&#9;&lt;/span&gt;&lt;span style=&quot;white-space: pre;&quot;&gt;&#9;&lt;/span&gt;Информация&lt;/font&gt;&lt;/b&gt;&lt;/span&gt;&lt;/div&gt;&lt;/blockquote&gt;&lt;/blockquote&gt;" style="html=1;shadow=0;dashed=0;shape=mxgraph.bootstrap.rrect;rSize=5;strokeColor=#666666;html=1;whiteSpace=wrap;fillColor=#D9D9D9;verticalAlign=bottom;align=left;spacing=20;spacingBottom=0;fontSize=14;gradientColor=#404040;gradientDirection=west;" parent="1" vertex="1">
                    <mxGeometry x="834" y="10" width="810" height="540" as="geometry"/>
                </mxCell>
                <mxCell id="73" value="&lt;span style=&quot;font-size: 20px;&quot;&gt;&lt;b&gt;Виртуальный офис&lt;/b&gt;&lt;/span&gt;" style="html=1;shadow=0;dashed=0;shape=mxgraph.bootstrap.topButton;rSize=5;perimeter=none;whiteSpace=wrap;fillColor=#f5f5f5;strokeColor=#666666;resizeWidth=1;fontSize=18;align=center;spacing=20;gradientColor=#FF99FF;fontColor=#000000;gradientDirection=east;" parent="72" vertex="1">
                    <mxGeometry width="810" height="50" relative="1" as="geometry"/>
                </mxCell>
                <mxCell id="74" value="&lt;u style=&quot;font-size: 32px;&quot;&gt;Привет, Иван!&lt;/u&gt;" style="html=1;shadow=0;dashed=0;shape=mxgraph.bootstrap.rrect;rSize=5;strokeColor=none;strokeWidth=1;fillColor=none;whiteSpace=wrap;align=center;verticalAlign=middle;spacingLeft=0;fontStyle=1;fontSize=32;spacing=5;fontColor=#990099;" parent="72" vertex="1">
                    <mxGeometry x="343" y="90" width="337" height="70" as="geometry"/>
                </mxCell>
                <mxCell id="87" value="&lt;span style=&quot;font-size: 20px;&quot;&gt;&lt;u&gt;Личные данные&lt;br&gt;&lt;br&gt;Документы&lt;br&gt;&lt;br&gt;Собственность&lt;br&gt;&lt;br&gt;Образование&lt;br&gt;&lt;br&gt;Планировщик&lt;br&gt;&lt;br&gt;Контакты&lt;br&gt;&lt;br&gt;История местоположений&lt;/u&gt;&lt;br&gt;&lt;/span&gt;&lt;span style=&quot;font-family: monospace; font-size: 0px; text-align: start;&quot;&gt;%3CmxGraphModel%3E%3Croot%3E%3CmxCell%20id%3D%220%22%2F%3E%3CmxCell%20id%3D%221%22%20parent%3D%220%22%2F%3E%3CmxCell%20id%3D%222%22%20value%3D%22%26lt%3Bp%20style%3D%26quot%3Bfont-size%3A%2012px%3B%26quot%3B%26gt%3B%26lt%3Bspan%20style%3D%26quot%3Bbackground-color%3A%20initial%3B%26quot%3B%26gt%3B%26lt%3Bb%26gt%3B1.%20%D0%94%D0%B0%D0%BD%D0%BD%D1%8B%D0%B5%20%D0%BF%D0%BE%D0%BB%D1%8C%D0%B7%D0%BE%D0%B2%D0%B0%D1%82%D0%B5%D0%BB%D1%8F%3A%26lt%3B%2Fb%26gt%3B%26lt%3B%2Fspan%26gt%3B%26lt%3B%2Fp%26gt%3B%22%20style%3D%22html%3D1%3Bshadow%3D0%3Bdashed%3D0%3Bshape%3Dmxgraph.bootstrap.rrect%3BrSize%3D5%3BstrokeColor%3D%231CA5B8%3BstrokeWidth%3D1%3BfillColor%3D%23FFFF33%3BfontColor%3D%23000000%3BwhiteSpace%3Dwrap%3Balign%3Dcenter%3BverticalAlign%3Dmiddle%3BspacingLeft%3D0%3BfontStyle%3D0%3BfontSize%3D12%3Bspacing%3D5%3BlabelPosition%3Dcenter%3BverticalLabelPosition%3Dmiddle%3B%22%20vertex%3D%221%22%20parent%3D%221%22%3E%3CmxGeometry%20x%3D%22570%22%20y%3D%22-630%22%20width%3D%22160%22%20height%3D%2230%22%20as%3D%22geometry%22%2F%3E%3C%2FmxCell%3E%3CmxCell%20id%3D%223%22%20value%3D%22%26lt%3Bp%20style%3D%26quot%3B%26quot%3B%26gt%3B2.%20%D0%94%D0%BE%D0%BA%D1%83%D0%BC%D0%B5%D0%BD%D1%82%D1%8B%26lt%3B%2Fp%26gt%3B%22%20style%3D%22html%3D1%3Bshadow%3D0%3Bdashed%3D0%3Bshape%3Dmxgraph.bootstrap.rrect%3BrSize%3D5%3BstrokeColor%3D%231CA5B8%3BstrokeWidth%3D1%3BfillColor%3D%23FFFF33%3BfontColor%3D%23000000%3BwhiteSpace%3Dwrap%3Balign%3Dcenter%3BverticalAlign%3Dmiddle%3BspacingLeft%3D0%3BfontStyle%3D1%3BfontSize%3D12%3Bspacing%3D5%3BlabelPosition%3Dcenter%3BverticalLabelPosition%3Dmiddle%3B%22%20vertex%3D%221%22%20parent%3D%221%22%3E%3CmxGeometry%20x%3D%22570%22%20y%3D%22-600%22%20width%3D%22160%22%20height%3D%2230%22%20as%3D%22geometry%22%2F%3E%3C%2FmxCell%3E%3CmxCell%20id%3D%224%22%20value%3D%22%26lt%3Bdiv%20style%3D%26quot%3B%26quot%3B%26gt%3B%26lt%3Bspan%20style%3D%26quot%3Bbackground-color%3A%20initial%3B%26quot%3B%26gt%3B3.%20%D0%A1%D0%BE%D0%B1%D1%81%D1%82%D0%B2%D0%B5%D0%BD%D0%BD%D0%BE%D1%81%D1%82%D1%8C%26lt%3B%2Fspan%26gt%3B%26lt%3B%2Fdiv%26gt%3B%22%20style%3D%22html%3D1%3Bshadow%3D0%3Bdashed%3D0%3Bshape%3Dmxgraph.bootstrap.rrect%3BrSize%3D5%3BstrokeColor%3D%231CA5B8%3BstrokeWidth%3D1%3BfillColor%3D%23FFFF33%3BfontColor%3D%23000000%3BwhiteSpace%3Dwrap%3Balign%3Dcenter%3BverticalAlign%3Dmiddle%3BspacingLeft%3D0%3BfontStyle%3D1%3BfontSize%3D12%3Bspacing%3D5%3BlabelPosition%3Dcenter%3BverticalLabelPosition%3Dmiddle%3B%22%20vertex%3D%221%22%20parent%3D%221%22%3E%3CmxGeometry%20x%3D%22570%22%20y%3D%22-570%22%20width%3D%22160%22%20height%3D%2230%22%20as%3D%22geometry%22%2F%3E%3C%2FmxCell%3E%3CmxCell%20id%3D%225%22%20value%3D%22%26lt%3Bdiv%20style%3D%26quot%3B%26quot%3B%26gt%3B%26lt%3Bspan%20style%3D%26quot%3Bbackground-color%3A%20initial%3B%26quot%3B%26gt%3B4.%20%D0%9E%D0%B1%D1%80%D0%B0%D0%B7%D0%BE%D0%B2%D0%B0%D0%BD%D0%B8%D0%B5%26lt%3B%2Fspan%26gt%3B%26lt%3B%2Fdiv%26gt%3B%22%20style%3D%22html%3D1%3Bshadow%3D0%3Bdashed%3D0%3Bshape%3Dmxgraph.bootstrap.rrect%3BrSize%3D5%3BstrokeColor%3D%231CA5B8%3BstrokeWidth%3D1%3BfillColor%3D%23FFFF33%3BfontColor%3D%23000000%3BwhiteSpace%3Dwrap%3Balign%3Dcenter%3BverticalAlign%3Dmiddle%3BspacingLeft%3D0%3BfontStyle%3D1%3BfontSize%3D12%3Bspacing%3D5%3BlabelPosition%3Dcenter%3BverticalLabelPosition%3Dmiddle%3B%22%20vertex%3D%221%22%20parent%3D%221%22%3E%3CmxGeometry%20x%3D%22570%22%20y%3D%22-540%22%20width%3D%22160%22%20height%3D%2230%22%20as%3D%22geometry%22%2F%3E%3C%2FmxCell%3E%3CmxCell%20id%3D%226%22%20value%3D%22%26lt%3Bdiv%20style%3D%26quot%3B%26quot%3B%26gt%3B%26lt%3Bspan%20style%3D%26quot%3Bbackground-color%3A%20initial%3B%26quot%3B%26gt%3B5.%20%D0%9F%D0%BB%D0%B0%D0%BD%D0%B8%D1%80%D0%BE%D0%B2%D1%89%D0%B8%D0%BA%26lt%3B%2Fspan%26gt%3B%26lt%3B%2Fdiv%26gt%3B%22%20style%3D%22html%3D1%3Bshadow%3D0%3Bdashed%3D0%3Bshape%3Dmxgraph.bootstrap.rrect%3BrSize%3D5%3BstrokeColor%3D%231CA5B8%3BstrokeWidth%3D1%3BfillColor%3D%23FFFF33%3BfontColor%3D%23000000%3BwhiteSpace%3Dwrap%3Balign%3Dcenter%3BverticalAlign%3Dmiddle%3BspacingLeft%3D0%3BfontStyle%3D1%3BfontSize%3D12%3Bspacing%3D5%3BlabelPosition%3Dcenter%3BverticalLabelPosition%3Dmiddle%3B%22%20vertex%3D%221%22%20parent%3D%221%22%3E%3CmxGeometry%20x%3D%22570%22%20y%3D%22-510%22%20width%3D%22160%22%20height%3D%2230%22%20as%3D%22geometry%22%2F%3E%3C%2FmxCell%3E%3CmxCell%20id%3D%227%22%20value%3D%22%26lt%3Bdiv%20style%3D%26quot%3B%26quot%3B%26gt%3B%26lt%3Bspan%20style%3D%26quot%3Bbackground-color%3A%20initial%3B%26quot%3B%26gt%3B6.%20%D0%9A%D0%BE%D0%BD%D1%82%D0%B0%D0%BA%D1%82%D1%8B%26lt%3B%2Fspan%26gt%3B%26lt%3B%2Fdiv%26gt%3B%22%20style%3D%22html%3D1%3Bshadow%3D0%3Bdashed%3D0%3Bshape%3Dmxgraph.bootstrap.rrect%3BrSize%3D5%3BstrokeColor%3D%231CA5B8%3BstrokeWidth%3D1%3BfillColor%3D%23FFFF33%3BfontColor%3D%23000000%3BwhiteSpace%3Dwrap%3Balign%3Dcenter%3BverticalAlign%3Dmiddle%3BspacingLeft%3D0%3BfontStyle%3D1%3BfontSize%3D12%3Bspacing%3D5%3BlabelPosition%3Dcenter%3BverticalLabelPosition%3Dmiddle%3B%22%20vertex%3D%221%22%20parent%3D%221%22%3E%3CmxGeometry%20x%3D%22570%22%20y%3D%22-480%22%20width%3D%22160%22%20height%3D%2230%22%20as%3D%22geometry%22%2F%3E%3C%2FmxCell%3E%3CmxCell%20id%3D%228%22%20value%3D%22%26lt%3Bdiv%20style%3D%26quot%3B%26quot%3B%26gt%3B%26lt%3Bspan%20style%3D%26quot%3Bbackground-color%3A%20initial%3B%26quot%3B%26gt%3B7.%20%D0%98%D1%81%D1%82%D0%BE%D1%80%D0%B8%D1%8F%20%D0%BC%D0%B5%D1%81%D1%82%D0%BE%D0%BF%D0%BE%D0%BB%D0%BE%D0%B6%D0%B5%D0%BD%D0%B8%D0%B9%26lt%3B%2Fspan%26gt%3B%26lt%3B%2Fdiv%26gt%3B%22%20style%3D%22html%3D1%3Bshadow%3D0%3Bdashed%3D0%3Bshape%3Dmxgraph.bootstrap.rrect%3BrSize%3D5%3BstrokeColor%3D%231CA5B8%3BstrokeWidth%3D1%3BfillColor%3D%23FFFF33%3BfontColor%3D%23000000%3BwhiteSpace%3Dwrap%3Balign%3Dcenter%3BverticalAlign%3Dmiddle%3BspacingLeft%3D0%3BfontStyle%3D1%3BfontSize%3D12%3Bspacing%3D5%3BlabelPosition%3Dcenter%3BverticalLabelPosition%3Dmiddle%3B%22%20vertex%3D%221%22%20parent%3D%221%22%3E%3CmxGeometry%20x%3D%22570%22%20y%3D%22-450%22%20width%3D%22160%22%20height%3D%2240%22%20as%3D%22geometry%22%2F%3E%3C%2FmxCell%3E%3C%2Froot%3E%3C%2FmxGraphModel%3EЛтиьбю&lt;/span&gt;&lt;u style=&quot;font-size: 20px;&quot;&gt;&lt;b&gt;&lt;br&gt;&lt;/b&gt;&lt;/u&gt;" style="html=1;shadow=0;dashed=0;shape=mxgraph.bootstrap.rrect;rSize=5;strokeColor=#666666;strokeWidth=1;fillColor=none;whiteSpace=wrap;align=center;verticalAlign=middle;spacingLeft=0;fontStyle=0;fontSize=20;spacing=5;gradientColor=#b3b3b3;fontColor=#FF66FF;" parent="72" vertex="1">
                    <mxGeometry y="50" width="260" height="440" as="geometry"/>
                </mxCell>
                <mxCell id="95" value="Обновить данные" style="html=1;shadow=0;dashed=0;shape=mxgraph.bootstrap.rrect;rSize=5;fillColor=#952499;strokeColor=none;align=center;fontSize=16;fontColor=#FFFFFF;" parent="72" vertex="1">
                    <mxGeometry width="170" height="40" relative="1" as="geometry">
                        <mxPoint x="269" y="280" as="offset"/>
                    </mxGeometry>
                </mxCell>
                <mxCell id="96" value="&lt;u style=&quot;font-size: 24px;&quot;&gt;&lt;font style=&quot;font-size: 24px;&quot;&gt;Хотите обновить данные через Госуслуги?&lt;/font&gt;&lt;/u&gt;" style="html=1;shadow=0;dashed=0;shape=mxgraph.bootstrap.rrect;rSize=5;strokeColor=none;strokeWidth=1;fillColor=none;whiteSpace=wrap;align=center;verticalAlign=middle;spacingLeft=0;fontStyle=1;fontSize=24;spacing=5;fontColor=#660066;" parent="72" vertex="1">
                    <mxGeometry x="243" y="194" width="570" height="70" as="geometry"/>
                </mxCell>
                <mxCell id="97" value="Перейти на главную страницу" style="html=1;shadow=0;dashed=0;shape=mxgraph.bootstrap.rrect;rSize=5;fillColor=#952499;strokeColor=none;align=center;fontSize=16;fontColor=#FFFFFF;" parent="72" vertex="1">
                    <mxGeometry width="260" height="40" relative="1" as="geometry">
                        <mxPoint x="269" y="352" as="offset"/>
                    </mxGeometry>
                </mxCell>
                <mxCell id="114" value="&lt;blockquote style=&quot;margin: 0 0 0 40px; border: none; padding: 0px;&quot;&gt;&lt;blockquote style=&quot;margin: 0 0 0 40px; border: none; padding: 0px;&quot;&gt;&lt;div style=&quot;text-align: justify;&quot;&gt;&lt;span style=&quot;font-size: 20px;&quot;&gt;&lt;b&gt;&lt;font color=&quot;#990099&quot;&gt;&lt;span style=&quot;white-space: pre;&quot;&gt;&#9;&lt;/span&gt;&lt;span style=&quot;white-space: pre;&quot;&gt;&#9;&lt;/span&gt;&lt;span style=&quot;white-space: pre;&quot;&gt;&#9;&lt;/span&gt;&lt;span style=&quot;white-space: pre;&quot;&gt;&#9;&lt;/span&gt;&lt;span style=&quot;white-space: pre;&quot;&gt;&#9;&lt;/span&gt;&lt;span style=&quot;white-space: pre;&quot;&gt;&#9;&lt;/span&gt;&lt;span style=&quot;white-space: pre;&quot;&gt;&#9;&lt;/span&gt;&lt;span style=&quot;white-space: pre;&quot;&gt;&#9;&lt;/span&gt;&lt;span style=&quot;white-space: pre;&quot;&gt;&#9;&lt;/span&gt;&lt;span style=&quot;white-space: pre;&quot;&gt;&#9;&lt;/span&gt;&lt;span style=&quot;white-space: pre;&quot;&gt;&#9;&lt;/span&gt;&lt;span style=&quot;white-space: pre;&quot;&gt;&#9;&lt;/span&gt;Информация&lt;/font&gt;&lt;/b&gt;&lt;/span&gt;&lt;/div&gt;&lt;/blockquote&gt;&lt;/blockquote&gt;" style="html=1;shadow=0;dashed=0;shape=mxgraph.bootstrap.rrect;rSize=5;strokeColor=#666666;html=1;whiteSpace=wrap;fillColor=#f5f5f5;verticalAlign=bottom;align=left;spacing=20;spacingBottom=0;fontSize=14;gradientColor=#404040;gradientDirection=west;" parent="1" vertex="1">
                    <mxGeometry x="1654" y="10" width="810" height="540" as="geometry"/>
                </mxCell>
                <mxCell id="115" value="&lt;span style=&quot;font-size: 20px;&quot;&gt;&lt;b&gt;Виртуальный офис&lt;/b&gt;&lt;/span&gt;" style="html=1;shadow=0;dashed=0;shape=mxgraph.bootstrap.topButton;rSize=5;perimeter=none;whiteSpace=wrap;fillColor=#f5f5f5;strokeColor=#666666;resizeWidth=1;fontSize=18;align=center;spacing=20;gradientColor=#FF99FF;fontColor=#000000;gradientDirection=east;" parent="114" vertex="1">
                    <mxGeometry width="810" height="50" relative="1" as="geometry"/>
                </mxCell>
                <mxCell id="101" value="&lt;span style=&quot;font-size: 20px;&quot;&gt;&lt;u style=&quot;&quot;&gt;&lt;b style=&quot;&quot;&gt;&lt;font color=&quot;#ffffff&quot;&gt;&lt;i&gt;Личные данные&lt;/i&gt;&lt;/font&gt;&lt;/b&gt;&lt;br&gt;&lt;br&gt;&lt;font color=&quot;#ff66ff&quot;&gt;Документы&lt;/font&gt;&lt;br&gt;&lt;br&gt;&lt;font color=&quot;#ff66ff&quot;&gt;Собственность&lt;br&gt;&lt;/font&gt;&lt;br&gt;&lt;/u&gt;&lt;/span&gt;&lt;u&gt;&lt;font color=&quot;#ff66ff&quot;&gt;Образование&lt;/font&gt;&lt;/u&gt;&lt;span style=&quot;font-size: 20px;&quot;&gt;&lt;u style=&quot;&quot;&gt;&lt;br&gt;&lt;br&gt;&lt;font color=&quot;#ff66ff&quot;&gt;Планировщик&lt;/font&gt;&lt;br&gt;&lt;br&gt;&lt;font color=&quot;#ff66ff&quot;&gt;Контакты&lt;/font&gt;&lt;br&gt;&lt;br&gt;&lt;font color=&quot;#ff66ff&quot;&gt;История местоположений&lt;/font&gt;&lt;/u&gt;&lt;br&gt;&lt;/span&gt;&lt;span style=&quot;color: rgb(255, 102, 255); font-family: monospace; font-size: 0px; text-align: start;&quot;&gt;%3CmxGraphModel%3E%3Croot%3E%3CmxCell%20id%3D%220%22%2F%3E%3CmxCell%20id%3D%221%22%20parent%3D%220%22%2F%3E%3CmxCell%20id%3D%222%22%20value%3D%22%26lt%3Bp%20style%3D%26quot%3Bfont-size%3A%2012px%3B%26quot%3B%26gt%3B%26lt%3Bspan%20style%3D%26quot%3Bbackground-color%3A%20initial%3B%26quot%3B%26gt%3B%26lt%3Bb%26gt%3B1.%20%D0%94%D0%B0%D0%BD%D0%BD%D1%8B%D0%B5%20%D0%BF%D0%BE%D0%BB%D1%8C%D0%B7%D0%BE%D0%B2%D0%B0%D1%82%D0%B5%D0%BB%D1%8F%3A%26lt%3B%2Fb%26gt%3B%26lt%3B%2Fspan%26gt%3B%26lt%3B%2Fp%26gt%3B%22%20style%3D%22html%3D1%3Bshadow%3D0%3Bdashed%3D0%3Bshape%3Dmxgraph.bootstrap.rrect%3BrSize%3D5%3BstrokeColor%3D%231CA5B8%3BstrokeWidth%3D1%3BfillColor%3D%23FFFF33%3BfontColor%3D%23000000%3BwhiteSpace%3Dwrap%3Balign%3Dcenter%3BverticalAlign%3Dmiddle%3BspacingLeft%3D0%3BfontStyle%3D0%3BfontSize%3D12%3Bspacing%3D5%3BlabelPosition%3Dcenter%3BverticalLabelPosition%3Dmiddle%3B%22%20vertex%3D%221%22%20parent%3D%221%22%3E%3CmxGeometry%20x%3D%22570%22%20y%3D%22-630%22%20width%3D%22160%22%20height%3D%2230%22%20as%3D%22geometry%22%2F%3E%3C%2FmxCell%3E%3CmxCell%20id%3D%223%22%20value%3D%22%26lt%3Bp%20style%3D%26quot%3B%26quot%3B%26gt%3B2.%20%D0%94%D0%BE%D0%BA%D1%83%D0%BC%D0%B5%D0%BD%D1%82%D1%8B%26lt%3B%2Fp%26gt%3B%22%20style%3D%22html%3D1%3Bshadow%3D0%3Bdashed%3D0%3Bshape%3Dmxgraph.bootstrap.rrect%3BrSize%3D5%3BstrokeColor%3D%231CA5B8%3BstrokeWidth%3D1%3BfillColor%3D%23FFFF33%3BfontColor%3D%23000000%3BwhiteSpace%3Dwrap%3Balign%3Dcenter%3BverticalAlign%3Dmiddle%3BspacingLeft%3D0%3BfontStyle%3D1%3BfontSize%3D12%3Bspacing%3D5%3BlabelPosition%3Dcenter%3BverticalLabelPosition%3Dmiddle%3B%22%20vertex%3D%221%22%20parent%3D%221%22%3E%3CmxGeometry%20x%3D%22570%22%20y%3D%22-600%22%20width%3D%22160%22%20height%3D%2230%22%20as%3D%22geometry%22%2F%3E%3C%2FmxCell%3E%3CmxCell%20id%3D%224%22%20value%3D%22%26lt%3Bdiv%20style%3D%26quot%3B%26quot%3B%26gt%3B%26lt%3Bspan%20style%3D%26quot%3Bbackground-color%3A%20initial%3B%26quot%3B%26gt%3B3.%20%D0%A1%D0%BE%D0%B1%D1%81%D1%82%D0%B2%D0%B5%D0%BD%D0%BD%D0%BE%D1%81%D1%82%D1%8C%26lt%3B%2Fspan%26gt%3B%26lt%3B%2Fdiv%26gt%3B%22%20style%3D%22html%3D1%3Bshadow%3D0%3Bdashed%3D0%3Bshape%3Dmxgraph.bootstrap.rrect%3BrSize%3D5%3BstrokeColor%3D%231CA5B8%3BstrokeWidth%3D1%3BfillColor%3D%23FFFF33%3BfontColor%3D%23000000%3BwhiteSpace%3Dwrap%3Balign%3Dcenter%3BverticalAlign%3Dmiddle%3BspacingLeft%3D0%3BfontStyle%3D1%3BfontSize%3D12%3Bspacing%3D5%3BlabelPosition%3Dcenter%3BverticalLabelPosition%3Dmiddle%3B%22%20vertex%3D%221%22%20parent%3D%221%22%3E%3CmxGeometry%20x%3D%22570%22%20y%3D%22-570%22%20width%3D%22160%22%20height%3D%2230%22%20as%3D%22geometry%22%2F%3E%3C%2FmxCell%3E%3CmxCell%20id%3D%225%22%20value%3D%22%26lt%3Bdiv%20style%3D%26quot%3B%26quot%3B%26gt%3B%26lt%3Bspan%20style%3D%26quot%3Bbackground-color%3A%20initial%3B%26quot%3B%26gt%3B4.%20%D0%9E%D0%B1%D1%80%D0%B0%D0%B7%D0%BE%D0%B2%D0%B0%D0%BD%D0%B8%D0%B5%26lt%3B%2Fspan%26gt%3B%26lt%3B%2Fdiv%26gt%3B%22%20style%3D%22html%3D1%3Bshadow%3D0%3Bdashed%3D0%3Bshape%3Dmxgraph.bootstrap.rrect%3BrSize%3D5%3BstrokeColor%3D%231CA5B8%3BstrokeWidth%3D1%3BfillColor%3D%23FFFF33%3BfontColor%3D%23000000%3BwhiteSpace%3Dwrap%3Balign%3Dcenter%3BverticalAlign%3Dmiddle%3BspacingLeft%3D0%3BfontStyle%3D1%3BfontSize%3D12%3Bspacing%3D5%3BlabelPosition%3Dcenter%3BverticalLabelPosition%3Dmiddle%3B%22%20vertex%3D%221%22%20parent%3D%221%22%3E%3CmxGeometry%20x%3D%22570%22%20y%3D%22-540%22%20width%3D%22160%22%20height%3D%2230%22%20as%3D%22geometry%22%2F%3E%3C%2FmxCell%3E%3CmxCell%20id%3D%226%22%20value%3D%22%26lt%3Bdiv%20style%3D%26quot%3B%26quot%3B%26gt%3B%26lt%3Bspan%20style%3D%26quot%3Bbackground-color%3A%20initial%3B%26quot%3B%26gt%3B5.%20%D0%9F%D0%BB%D0%B0%D0%BD%D0%B8%D1%80%D0%BE%D0%B2%D1%89%D0%B8%D0%BA%26lt%3B%2Fspan%26gt%3B%26lt%3B%2Fdiv%26gt%3B%22%20style%3D%22html%3D1%3Bshadow%3D0%3Bdashed%3D0%3Bshape%3Dmxgraph.bootstrap.rrect%3BrSize%3D5%3BstrokeColor%3D%231CA5B8%3BstrokeWidth%3D1%3BfillColor%3D%23FFFF33%3BfontColor%3D%23000000%3BwhiteSpace%3Dwrap%3Balign%3Dcenter%3BverticalAlign%3Dmiddle%3BspacingLeft%3D0%3BfontStyle%3D1%3BfontSize%3D12%3Bspacing%3D5%3BlabelPosition%3Dcenter%3BverticalLabelPosition%3Dmiddle%3B%22%20vertex%3D%221%22%20parent%3D%221%22%3E%3CmxGeometry%20x%3D%22570%22%20y%3D%22-510%22%20width%3D%22160%22%20height%3D%2230%22%20as%3D%22geometry%22%2F%3E%3C%2FmxCell%3E%3CmxCell%20id%3D%227%22%20value%3D%22%26lt%3Bdiv%20style%3D%26quot%3B%26quot%3B%26gt%3B%26lt%3Bspan%20style%3D%26quot%3Bbackground-color%3A%20initial%3B%26quot%3B%26gt%3B6.%20%D0%9A%D0%BE%D0%BD%D1%82%D0%B0%D0%BA%D1%82%D1%8B%26lt%3B%2Fspan%26gt%3B%26lt%3B%2Fdiv%26gt%3B%22%20style%3D%22html%3D1%3Bshadow%3D0%3Bdashed%3D0%3Bshape%3Dmxgraph.bootstrap.rrect%3BrSize%3D5%3BstrokeColor%3D%231CA5B8%3BstrokeWidth%3D1%3BfillColor%3D%23FFFF33%3BfontColor%3D%23000000%3BwhiteSpace%3Dwrap%3Balign%3Dcenter%3BverticalAlign%3Dmiddle%3BspacingLeft%3D0%3BfontStyle%3D1%3BfontSize%3D12%3Bspacing%3D5%3BlabelPosition%3Dcenter%3BverticalLabelPosition%3Dmiddle%3B%22%20vertex%3D%221%22%20parent%3D%221%22%3E%3CmxGeometry%20x%3D%22570%22%20y%3D%22-480%22%20width%3D%22160%22%20height%3D%2230%22%20as%3D%22geometry%22%2F%3E%3C%2FmxCell%3E%3CmxCell%20id%3D%228%22%20value%3D%22%26lt%3Bdiv%20style%3D%26quot%3B%26quot%3B%26gt%3B%26lt%3Bspan%20style%3D%26quot%3Bbackground-color%3A%20initial%3B%26quot%3B%26gt%3B7.%20%D0%98%D1%81%D1%82%D0%BE%D1%80%D0%B8%D1%8F%20%D0%BC%D0%B5%D1%81%D1%82%D0%BE%D0%BF%D0%BE%D0%BB%D0%BE%D0%B6%D0%B5%D0%BD%D0%B8%D0%B9%26lt%3B%2Fspan%26gt%3B%26lt%3B%2Fdiv%26gt%3B%22%20style%3D%22html%3D1%3Bshadow%3D0%3Bdashed%3D0%3Bshape%3Dmxgraph.bootstrap.rrect%3BrSize%3D5%3BstrokeColor%3D%231CA5B8%3BstrokeWidth%3D1%3BfillColor%3D%23FFFF33%3BfontColor%3D%23000000%3BwhiteSpace%3Dwrap%3Balign%3Dcenter%3BverticalAlign%3Dmiddle%3BspacingLeft%3D0%3BfontStyle%3D1%3BfontSize%3D12%3Bspacing%3D5%3BlabelPosition%3Dcenter%3BverticalLabelPosition%3Dmiddle%3B%22%20vertex%3D%221%22%20parent%3D%221%22%3E%3CmxGeometry%20x%3D%22570%22%20y%3D%22-450%22%20width%3D%22160%22%20height%3D%2240%22%20as%3D%22geometry%22%2F%3E%3C%2FmxCell%3E%3C%2Froot%3E%3C%2FmxGraphModel%3EЛтиьбю&lt;/span&gt;&lt;u style=&quot;font-size: 20px;&quot;&gt;&lt;b&gt;&lt;br&gt;&lt;/b&gt;&lt;/u&gt;" style="html=1;shadow=0;dashed=0;shape=mxgraph.bootstrap.rrect;rSize=5;strokeColor=#666666;strokeWidth=1;fillColor=none;whiteSpace=wrap;align=center;verticalAlign=middle;spacingLeft=0;fontStyle=0;fontSize=20;spacing=5;gradientColor=#b3b3b3;fontColor=#000000;" parent="114" vertex="1">
                    <mxGeometry y="50" width="254" height="400" as="geometry"/>
                </mxCell>
                <mxCell id="112" value="&lt;p style=&quot;color: rgb(0, 0, 0); font-size: 17px;&quot;&gt;&lt;b&gt;&lt;br&gt;&lt;/b&gt;&lt;/p&gt;&lt;div style=&quot;color: rgb(0, 0, 0); font-size: 17px;&quot;&gt;&lt;font style=&quot;font-size: 17px;&quot;&gt;&lt;b&gt;Иванов Иван Иванович&lt;/b&gt;&lt;/font&gt;&lt;/div&gt;&lt;div style=&quot;color: rgb(0, 0, 0); font-size: 17px;&quot;&gt;&lt;font style=&quot;font-size: 17px;&quot;&gt;&lt;b&gt;мужской&lt;/b&gt;&lt;/font&gt;&lt;/div&gt;&lt;div style=&quot;color: rgb(0, 0, 0); font-size: 17px;&quot;&gt;&lt;font style=&quot;font-size: 17px;&quot;&gt;&lt;b&gt;24 сентября1990 года&amp;nbsp;&lt;/b&gt;&lt;/font&gt;&lt;/div&gt;&lt;div style=&quot;color: rgb(0, 0, 0); font-size: 17px;&quot;&gt;&lt;font style=&quot;font-size: 17px;&quot;&gt;&lt;b&gt;г. Бирюч Белгородской области&lt;/b&gt;&lt;/font&gt;&lt;/div&gt;&lt;div style=&quot;color: rgb(0, 0, 0); font-size: 17px;&quot;&gt;&lt;font style=&quot;font-size: 17px;&quot;&gt;&lt;b&gt;Московская область, г. Пушкино, ул. Ленина, д. 4, кв. 106&amp;nbsp;&lt;/b&gt;&lt;/font&gt;&lt;/div&gt;&lt;div style=&quot;color: rgb(0, 0, 0); font-size: 17px;&quot;&gt;&lt;font style=&quot;font-size: 17px;&quot;&gt;&lt;span style=&quot;background-color: initial; font-size: 17px;&quot;&gt;&lt;b&gt;женат&amp;nbsp;&lt;/b&gt;&lt;/span&gt;&lt;/font&gt;&lt;/div&gt;&lt;div style=&quot;color: rgb(0, 0, 0); font-size: 17px;&quot;&gt;&lt;span style=&quot;background-color: initial; font-size: 17px;&quot;&gt;&lt;font style=&quot;font-size: 17px;&quot;&gt;&lt;b&gt;нет&lt;/b&gt;&lt;/font&gt;&lt;/span&gt;&lt;/div&gt;" style="html=1;shadow=0;dashed=0;shape=mxgraph.bootstrap.rrect;rSize=5;strokeColor=none;strokeWidth=1;fillColor=none;whiteSpace=wrap;align=left;verticalAlign=middle;spacingLeft=0;fontStyle=0;fontSize=17;spacing=5;fontColor=#1A1A1A;" parent="114" vertex="1">
                    <mxGeometry x="476.86" y="70" width="333.14" height="240" as="geometry"/>
                </mxCell>
                <mxCell id="103" value="&lt;p style=&quot;color: rgb(0, 0, 0); font-weight: 400; font-size: 17px;&quot;&gt;&lt;font style=&quot;font-size: 17px;&quot;&gt;&lt;span style=&quot;background-color: initial; font-size: 17px;&quot;&gt;&lt;b style=&quot;font-size: 17px;&quot;&gt;Данные пользователя:&lt;/b&gt;&lt;/span&gt;&lt;br style=&quot;font-size: 17px;&quot;&gt;&lt;/font&gt;&lt;/p&gt;&lt;div style=&quot;color: rgb(0, 0, 0); font-weight: 400; font-size: 17px;&quot;&gt;&lt;font style=&quot;font-size: 17px;&quot;&gt;Фамилия&amp;nbsp;&lt;span style=&quot;background-color: initial; font-size: 17px;&quot;&gt;Имя&amp;nbsp;&lt;/span&gt;&lt;span style=&quot;background-color: initial; font-size: 17px;&quot;&gt;Отчество:&lt;/span&gt;&lt;/font&gt;&lt;/div&gt;&lt;div style=&quot;color: rgb(0, 0, 0); font-weight: 400; font-size: 17px;&quot;&gt;&lt;font style=&quot;font-size: 17px;&quot;&gt;Пол:&lt;/font&gt;&lt;/div&gt;&lt;div style=&quot;color: rgb(0, 0, 0); font-weight: 400; font-size: 17px;&quot;&gt;&lt;font style=&quot;font-size: 17px;&quot;&gt;Дата рождения:&lt;/font&gt;&lt;/div&gt;&lt;div style=&quot;color: rgb(0, 0, 0); font-weight: 400; font-size: 17px;&quot;&gt;&lt;font style=&quot;font-size: 17px;&quot;&gt;Место рождения:&lt;/font&gt;&lt;/div&gt;&lt;div style=&quot;color: rgb(0, 0, 0); font-weight: 400; font-size: 17px;&quot;&gt;&lt;font style=&quot;font-size: 17px;&quot;&gt;Место регистрации:&lt;/font&gt;&lt;/div&gt;&lt;div style=&quot;color: rgb(0, 0, 0); font-weight: 400; font-size: 17px;&quot;&gt;&lt;font style=&quot;font-size: 17px;&quot;&gt;&amp;nbsp;&lt;/font&gt;&lt;/div&gt;&lt;div style=&quot;color: rgb(0, 0, 0); font-weight: 400; font-size: 17px;&quot;&gt;&lt;span style=&quot;background-color: initial;&quot;&gt;Семейное&amp;nbsp;&lt;/span&gt;&lt;span style=&quot;background-color: initial;&quot;&gt;положение:&amp;nbsp;&lt;/span&gt;&lt;br&gt;&lt;/div&gt;&lt;div style=&quot;color: rgb(0, 0, 0); font-weight: 400; font-size: 17px;&quot;&gt;&lt;span style=&quot;background-color: initial; font-size: 17px;&quot;&gt;&lt;font style=&quot;font-size: 17px;&quot;&gt;Дети:&lt;/font&gt;&lt;/span&gt;&lt;/div&gt;" style="html=1;shadow=0;dashed=0;shape=mxgraph.bootstrap.rrect;rSize=5;strokeColor=none;strokeWidth=1;fillColor=none;whiteSpace=wrap;align=left;verticalAlign=middle;spacingLeft=0;fontStyle=1;fontSize=17;spacing=5;fontColor=#1A1A1A;" parent="114" vertex="1">
                    <mxGeometry x="260" y="50" width="210.86" height="280" as="geometry"/>
                </mxCell>
                <mxCell id="102" value="Обновить данные через Госуслуги" style="html=1;shadow=0;dashed=0;shape=mxgraph.bootstrap.rrect;rSize=5;fillColor=#952499;strokeColor=none;align=center;fontSize=16;fontColor=#FFFFFF;" parent="114" vertex="1">
                    <mxGeometry width="280" height="40" relative="1" as="geometry">
                        <mxPoint x="254" y="485" as="offset"/>
                    </mxGeometry>
                </mxCell>
                <mxCell id="104" value="Изменить данные" style="html=1;shadow=0;dashed=0;shape=mxgraph.bootstrap.rrect;rSize=5;fillColor=#952499;strokeColor=none;align=center;fontSize=16;fontColor=#FFFFFF;" parent="114" vertex="1">
                    <mxGeometry width="260" height="40" relative="1" as="geometry">
                        <mxPoint x="260" y="331" as="offset"/>
                    </mxGeometry>
                </mxCell>
                <mxCell id="121" value="&lt;blockquote style=&quot;margin: 0 0 0 40px; border: none; padding: 0px;&quot;&gt;&lt;blockquote style=&quot;margin: 0 0 0 40px; border: none; padding: 0px;&quot;&gt;&lt;div style=&quot;text-align: justify;&quot;&gt;&lt;span style=&quot;font-size: 20px;&quot;&gt;&lt;b&gt;&lt;font color=&quot;#990099&quot;&gt;&lt;span style=&quot;white-space: pre;&quot;&gt;&#9;&lt;/span&gt;&lt;span style=&quot;white-space: pre;&quot;&gt;&#9;&lt;/span&gt;&lt;span style=&quot;white-space: pre;&quot;&gt;&#9;&lt;/span&gt;&lt;span style=&quot;white-space: pre;&quot;&gt;&#9;&lt;/span&gt;&lt;span style=&quot;white-space: pre;&quot;&gt;&#9;&lt;/span&gt;&lt;span style=&quot;white-space: pre;&quot;&gt;&#9;&lt;/span&gt;&lt;span style=&quot;white-space: pre;&quot;&gt;&#9;&lt;/span&gt;&lt;span style=&quot;white-space: pre;&quot;&gt;&#9;&lt;/span&gt;&lt;span style=&quot;white-space: pre;&quot;&gt;&#9;&lt;/span&gt;&lt;span style=&quot;white-space: pre;&quot;&gt;&#9;&lt;/span&gt;&lt;span style=&quot;white-space: pre;&quot;&gt;&#9;&lt;/span&gt;&lt;span style=&quot;white-space: pre;&quot;&gt;&#9;&lt;/span&gt;Информация&lt;/font&gt;&lt;/b&gt;&lt;/span&gt;&lt;/div&gt;&lt;/blockquote&gt;&lt;/blockquote&gt;" style="html=1;shadow=0;dashed=0;shape=mxgraph.bootstrap.rrect;rSize=5;strokeColor=#666666;html=1;whiteSpace=wrap;fillColor=#f5f5f5;verticalAlign=bottom;align=left;spacing=20;spacingBottom=0;fontSize=14;gradientColor=#404040;gradientDirection=west;" parent="1" vertex="1">
                    <mxGeometry x="1654" y="580" width="810" height="540" as="geometry"/>
                </mxCell>
                <mxCell id="122" value="&lt;span style=&quot;font-size: 20px;&quot;&gt;&lt;b&gt;Виртуальный офис&lt;/b&gt;&lt;/span&gt;" style="html=1;shadow=0;dashed=0;shape=mxgraph.bootstrap.topButton;rSize=5;perimeter=none;whiteSpace=wrap;fillColor=#f5f5f5;strokeColor=#666666;resizeWidth=1;fontSize=18;align=center;spacing=20;gradientColor=#FF99FF;fontColor=#000000;gradientDirection=east;" parent="121" vertex="1">
                    <mxGeometry width="810" height="50" relative="1" as="geometry"/>
                </mxCell>
                <mxCell id="123" value="&lt;span style=&quot;font-size: 20px;&quot;&gt;&lt;u style=&quot;&quot;&gt;&lt;font color=&quot;#ffffff&quot;&gt;&lt;b style=&quot;&quot;&gt;&lt;i&gt;Личные данные&lt;/i&gt;&lt;/b&gt;&lt;br&gt;&lt;/font&gt;&lt;br&gt;&lt;font color=&quot;#ff66ff&quot;&gt;Документы&lt;/font&gt;&lt;br&gt;&lt;br&gt;&lt;font color=&quot;#ff66ff&quot;&gt;Собственность&lt;/font&gt;&lt;br&gt;&lt;/u&gt;&lt;/span&gt;&lt;u&gt;&lt;br&gt;&lt;/u&gt;&lt;u&gt;&lt;font color=&quot;#ff66ff&quot;&gt;Образование&lt;/font&gt;&lt;/u&gt;&lt;u&gt;&lt;br&gt;&lt;br&gt;&lt;/u&gt;&lt;span style=&quot;font-size: 20px;&quot;&gt;&lt;u style=&quot;&quot;&gt;&lt;font color=&quot;#ff66ff&quot;&gt;Планировщик&lt;/font&gt;&lt;br&gt;&lt;br&gt;&lt;font color=&quot;#ff66ff&quot;&gt;Контакты&lt;/font&gt;&lt;br&gt;&lt;br&gt;&lt;font color=&quot;#ff66ff&quot;&gt;История местоположений&lt;/font&gt;&lt;/u&gt;&lt;br&gt;&lt;/span&gt;&lt;span style=&quot;color: rgb(255, 102, 255); font-family: monospace; font-size: 0px; text-align: start;&quot;&gt;%3CmxGraphModel%3E%3Croot%3E%3CmxCell%20id%3D%220%22%2F%3E%3CmxCell%20id%3D%221%22%20parent%3D%220%22%2F%3E%3CmxCell%20id%3D%222%22%20value%3D%22%26lt%3Bp%20style%3D%26quot%3Bfont-size%3A%2012px%3B%26quot%3B%26gt%3B%26lt%3Bspan%20style%3D%26quot%3Bbackground-color%3A%20initial%3B%26quot%3B%26gt%3B%26lt%3Bb%26gt%3B1.%20%D0%94%D0%B0%D0%BD%D0%BD%D1%8B%D0%B5%20%D0%BF%D0%BE%D0%BB%D1%8C%D0%B7%D0%BE%D0%B2%D0%B0%D1%82%D0%B5%D0%BB%D1%8F%3A%26lt%3B%2Fb%26gt%3B%26lt%3B%2Fspan%26gt%3B%26lt%3B%2Fp%26gt%3B%22%20style%3D%22html%3D1%3Bshadow%3D0%3Bdashed%3D0%3Bshape%3Dmxgraph.bootstrap.rrect%3BrSize%3D5%3BstrokeColor%3D%231CA5B8%3BstrokeWidth%3D1%3BfillColor%3D%23FFFF33%3BfontColor%3D%23000000%3BwhiteSpace%3Dwrap%3Balign%3Dcenter%3BverticalAlign%3Dmiddle%3BspacingLeft%3D0%3BfontStyle%3D0%3BfontSize%3D12%3Bspacing%3D5%3BlabelPosition%3Dcenter%3BverticalLabelPosition%3Dmiddle%3B%22%20vertex%3D%221%22%20parent%3D%221%22%3E%3CmxGeometry%20x%3D%22570%22%20y%3D%22-630%22%20width%3D%22160%22%20height%3D%2230%22%20as%3D%22geometry%22%2F%3E%3C%2FmxCell%3E%3CmxCell%20id%3D%223%22%20value%3D%22%26lt%3Bp%20style%3D%26quot%3B%26quot%3B%26gt%3B2.%20%D0%94%D0%BE%D0%BA%D1%83%D0%BC%D0%B5%D0%BD%D1%82%D1%8B%26lt%3B%2Fp%26gt%3B%22%20style%3D%22html%3D1%3Bshadow%3D0%3Bdashed%3D0%3Bshape%3Dmxgraph.bootstrap.rrect%3BrSize%3D5%3BstrokeColor%3D%231CA5B8%3BstrokeWidth%3D1%3BfillColor%3D%23FFFF33%3BfontColor%3D%23000000%3BwhiteSpace%3Dwrap%3Balign%3Dcenter%3BverticalAlign%3Dmiddle%3BspacingLeft%3D0%3BfontStyle%3D1%3BfontSize%3D12%3Bspacing%3D5%3BlabelPosition%3Dcenter%3BverticalLabelPosition%3Dmiddle%3B%22%20vertex%3D%221%22%20parent%3D%221%22%3E%3CmxGeometry%20x%3D%22570%22%20y%3D%22-600%22%20width%3D%22160%22%20height%3D%2230%22%20as%3D%22geometry%22%2F%3E%3C%2FmxCell%3E%3CmxCell%20id%3D%224%22%20value%3D%22%26lt%3Bdiv%20style%3D%26quot%3B%26quot%3B%26gt%3B%26lt%3Bspan%20style%3D%26quot%3Bbackground-color%3A%20initial%3B%26quot%3B%26gt%3B3.%20%D0%A1%D0%BE%D0%B1%D1%81%D1%82%D0%B2%D0%B5%D0%BD%D0%BD%D0%BE%D1%81%D1%82%D1%8C%26lt%3B%2Fspan%26gt%3B%26lt%3B%2Fdiv%26gt%3B%22%20style%3D%22html%3D1%3Bshadow%3D0%3Bdashed%3D0%3Bshape%3Dmxgraph.bootstrap.rrect%3BrSize%3D5%3BstrokeColor%3D%231CA5B8%3BstrokeWidth%3D1%3BfillColor%3D%23FFFF33%3BfontColor%3D%23000000%3BwhiteSpace%3Dwrap%3Balign%3Dcenter%3BverticalAlign%3Dmiddle%3BspacingLeft%3D0%3BfontStyle%3D1%3BfontSize%3D12%3Bspacing%3D5%3BlabelPosition%3Dcenter%3BverticalLabelPosition%3Dmiddle%3B%22%20vertex%3D%221%22%20parent%3D%221%22%3E%3CmxGeometry%20x%3D%22570%22%20y%3D%22-570%22%20width%3D%22160%22%20height%3D%2230%22%20as%3D%22geometry%22%2F%3E%3C%2FmxCell%3E%3CmxCell%20id%3D%225%22%20value%3D%22%26lt%3Bdiv%20style%3D%26quot%3B%26quot%3B%26gt%3B%26lt%3Bspan%20style%3D%26quot%3Bbackground-color%3A%20initial%3B%26quot%3B%26gt%3B4.%20%D0%9E%D0%B1%D1%80%D0%B0%D0%B7%D0%BE%D0%B2%D0%B0%D0%BD%D0%B8%D0%B5%26lt%3B%2Fspan%26gt%3B%26lt%3B%2Fdiv%26gt%3B%22%20style%3D%22html%3D1%3Bshadow%3D0%3Bdashed%3D0%3Bshape%3Dmxgraph.bootstrap.rrect%3BrSize%3D5%3BstrokeColor%3D%231CA5B8%3BstrokeWidth%3D1%3BfillColor%3D%23FFFF33%3BfontColor%3D%23000000%3BwhiteSpace%3Dwrap%3Balign%3Dcenter%3BverticalAlign%3Dmiddle%3BspacingLeft%3D0%3BfontStyle%3D1%3BfontSize%3D12%3Bspacing%3D5%3BlabelPosition%3Dcenter%3BverticalLabelPosition%3Dmiddle%3B%22%20vertex%3D%221%22%20parent%3D%221%22%3E%3CmxGeometry%20x%3D%22570%22%20y%3D%22-540%22%20width%3D%22160%22%20height%3D%2230%22%20as%3D%22geometry%22%2F%3E%3C%2FmxCell%3E%3CmxCell%20id%3D%226%22%20value%3D%22%26lt%3Bdiv%20style%3D%26quot%3B%26quot%3B%26gt%3B%26lt%3Bspan%20style%3D%26quot%3Bbackground-color%3A%20initial%3B%26quot%3B%26gt%3B5.%20%D0%9F%D0%BB%D0%B0%D0%BD%D0%B8%D1%80%D0%BE%D0%B2%D1%89%D0%B8%D0%BA%26lt%3B%2Fspan%26gt%3B%26lt%3B%2Fdiv%26gt%3B%22%20style%3D%22html%3D1%3Bshadow%3D0%3Bdashed%3D0%3Bshape%3Dmxgraph.bootstrap.rrect%3BrSize%3D5%3BstrokeColor%3D%231CA5B8%3BstrokeWidth%3D1%3BfillColor%3D%23FFFF33%3BfontColor%3D%23000000%3BwhiteSpace%3Dwrap%3Balign%3Dcenter%3BverticalAlign%3Dmiddle%3BspacingLeft%3D0%3BfontStyle%3D1%3BfontSize%3D12%3Bspacing%3D5%3BlabelPosition%3Dcenter%3BverticalLabelPosition%3Dmiddle%3B%22%20vertex%3D%221%22%20parent%3D%221%22%3E%3CmxGeometry%20x%3D%22570%22%20y%3D%22-510%22%20width%3D%22160%22%20height%3D%2230%22%20as%3D%22geometry%22%2F%3E%3C%2FmxCell%3E%3CmxCell%20id%3D%227%22%20value%3D%22%26lt%3Bdiv%20style%3D%26quot%3B%26quot%3B%26gt%3B%26lt%3Bspan%20style%3D%26quot%3Bbackground-color%3A%20initial%3B%26quot%3B%26gt%3B6.%20%D0%9A%D0%BE%D0%BD%D1%82%D0%B0%D0%BA%D1%82%D1%8B%26lt%3B%2Fspan%26gt%3B%26lt%3B%2Fdiv%26gt%3B%22%20style%3D%22html%3D1%3Bshadow%3D0%3Bdashed%3D0%3Bshape%3Dmxgraph.bootstrap.rrect%3BrSize%3D5%3BstrokeColor%3D%231CA5B8%3BstrokeWidth%3D1%3BfillColor%3D%23FFFF33%3BfontColor%3D%23000000%3BwhiteSpace%3Dwrap%3Balign%3Dcenter%3BverticalAlign%3Dmiddle%3BspacingLeft%3D0%3BfontStyle%3D1%3BfontSize%3D12%3Bspacing%3D5%3BlabelPosition%3Dcenter%3BverticalLabelPosition%3Dmiddle%3B%22%20vertex%3D%221%22%20parent%3D%221%22%3E%3CmxGeometry%20x%3D%22570%22%20y%3D%22-480%22%20width%3D%22160%22%20height%3D%2230%22%20as%3D%22geometry%22%2F%3E%3C%2FmxCell%3E%3CmxCell%20id%3D%228%22%20value%3D%22%26lt%3Bdiv%20style%3D%26quot%3B%26quot%3B%26gt%3B%26lt%3Bspan%20style%3D%26quot%3Bbackground-color%3A%20initial%3B%26quot%3B%26gt%3B7.%20%D0%98%D1%81%D1%82%D0%BE%D1%80%D0%B8%D1%8F%20%D0%BC%D0%B5%D1%81%D1%82%D0%BE%D0%BF%D0%BE%D0%BB%D0%BE%D0%B6%D0%B5%D0%BD%D0%B8%D0%B9%26lt%3B%2Fspan%26gt%3B%26lt%3B%2Fdiv%26gt%3B%22%20style%3D%22html%3D1%3Bshadow%3D0%3Bdashed%3D0%3Bshape%3Dmxgraph.bootstrap.rrect%3BrSize%3D5%3BstrokeColor%3D%231CA5B8%3BstrokeWidth%3D1%3BfillColor%3D%23FFFF33%3BfontColor%3D%23000000%3BwhiteSpace%3Dwrap%3Balign%3Dcenter%3BverticalAlign%3Dmiddle%3BspacingLeft%3D0%3BfontStyle%3D1%3BfontSize%3D12%3Bspacing%3D5%3BlabelPosition%3Dcenter%3BverticalLabelPosition%3Dmiddle%3B%22%20vertex%3D%221%22%20parent%3D%221%22%3E%3CmxGeometry%20x%3D%22570%22%20y%3D%22-450%22%20width%3D%22160%22%20height%3D%2240%22%20as%3D%22geometry%22%2F%3E%3C%2FmxCell%3E%3C%2Froot%3E%3C%2FmxGraphModel%3EЛтиьбю&lt;/span&gt;&lt;u style=&quot;font-size: 20px;&quot;&gt;&lt;b&gt;&lt;br&gt;&lt;/b&gt;&lt;/u&gt;" style="html=1;shadow=0;dashed=0;shape=mxgraph.bootstrap.rrect;rSize=5;strokeColor=#666666;strokeWidth=1;fillColor=none;whiteSpace=wrap;align=center;verticalAlign=middle;spacingLeft=0;fontStyle=0;fontSize=20;spacing=5;gradientColor=#b3b3b3;fontColor=#000000;" parent="121" vertex="1">
                    <mxGeometry y="50" width="254" height="400" as="geometry"/>
                </mxCell>
                <mxCell id="125" value="&lt;p style=&quot;font-weight: 400; font-size: 17px;&quot;&gt;&lt;font style=&quot;font-size: 17px;&quot;&gt;&lt;span style=&quot;background-color: initial; font-size: 17px;&quot;&gt;&lt;b style=&quot;font-size: 17px;&quot;&gt;Данные пользователя:&lt;/b&gt;&lt;/span&gt;&lt;br style=&quot;font-size: 17px;&quot;&gt;&lt;/font&gt;&lt;/p&gt;&lt;div style=&quot;font-weight: 400; font-size: 17px;&quot;&gt;&lt;font style=&quot;font-size: 17px;&quot;&gt;Фамилия&lt;/font&gt;&lt;/div&gt;&lt;div style=&quot;font-weight: 400; font-size: 17px;&quot;&gt;&lt;font style=&quot;font-size: 17px;&quot;&gt;&lt;span style=&quot;background-color: initial; font-size: 17px;&quot;&gt;&lt;br&gt;&lt;/span&gt;&lt;/font&gt;&lt;/div&gt;&lt;div style=&quot;font-weight: 400; font-size: 17px;&quot;&gt;&lt;font style=&quot;font-size: 17px;&quot;&gt;&lt;span style=&quot;background-color: initial; font-size: 17px;&quot;&gt;Имя&lt;/span&gt;&lt;/font&gt;&lt;/div&gt;&lt;div style=&quot;font-weight: 400; font-size: 17px;&quot;&gt;&lt;font style=&quot;font-size: 17px;&quot;&gt;&lt;span style=&quot;background-color: initial; font-size: 17px;&quot;&gt;&lt;br&gt;&lt;/span&gt;&lt;/font&gt;&lt;/div&gt;&lt;div style=&quot;font-weight: 400; font-size: 17px;&quot;&gt;&lt;font style=&quot;font-size: 17px;&quot;&gt;&lt;span style=&quot;background-color: initial; font-size: 17px;&quot;&gt;Отчество:&lt;/span&gt;&lt;/font&gt;&lt;/div&gt;&lt;div style=&quot;font-weight: 400; font-size: 17px;&quot;&gt;&lt;span style=&quot;background-color: initial;&quot;&gt;&lt;br&gt;&lt;/span&gt;&lt;/div&gt;&lt;div style=&quot;font-weight: 400; font-size: 17px;&quot;&gt;&lt;span style=&quot;background-color: initial;&quot;&gt;Место регистрации:&lt;/span&gt;&lt;br&gt;&lt;/div&gt;&lt;div style=&quot;font-weight: 400; font-size: 17px;&quot;&gt;&lt;font style=&quot;font-size: 17px;&quot;&gt;&amp;nbsp;&lt;/font&gt;&lt;/div&gt;&lt;div style=&quot;font-weight: 400; font-size: 17px;&quot;&gt;&lt;span style=&quot;background-color: initial;&quot;&gt;Семейное&amp;nbsp;&lt;/span&gt;&lt;span style=&quot;background-color: initial;&quot;&gt;положение:&lt;/span&gt;&lt;/div&gt;&lt;div style=&quot;font-weight: 400; font-size: 17px;&quot;&gt;&lt;span style=&quot;background-color: initial;&quot;&gt;&amp;nbsp;&lt;/span&gt;&lt;br&gt;&lt;/div&gt;&lt;div style=&quot;font-weight: 400; font-size: 17px;&quot;&gt;&lt;span style=&quot;background-color: initial; font-size: 17px;&quot;&gt;&lt;font style=&quot;font-size: 17px;&quot;&gt;Дети:&lt;/font&gt;&lt;/span&gt;&lt;/div&gt;" style="html=1;shadow=0;dashed=0;shape=mxgraph.bootstrap.rrect;rSize=5;strokeColor=none;strokeWidth=1;fillColor=none;whiteSpace=wrap;align=left;verticalAlign=middle;spacingLeft=0;fontStyle=1;fontSize=17;spacing=5;fontColor=#330033;" parent="121" vertex="1">
                    <mxGeometry x="265" y="72" width="210.86" height="310" as="geometry"/>
                </mxCell>
                <mxCell id="126" value="Обновить данные через Госуслуги" style="html=1;shadow=0;dashed=0;shape=mxgraph.bootstrap.rrect;rSize=5;fillColor=#952499;strokeColor=none;align=center;fontSize=16;fontColor=#FFFFFF;" parent="121" vertex="1">
                    <mxGeometry width="280" height="40" relative="1" as="geometry">
                        <mxPoint x="254" y="484" as="offset"/>
                    </mxGeometry>
                </mxCell>
                <mxCell id="127" value="Сохранить изменения" style="html=1;shadow=0;dashed=0;shape=mxgraph.bootstrap.rrect;rSize=5;fillColor=#952499;strokeColor=none;align=center;fontSize=16;fontColor=#FFFFFF;" parent="121" vertex="1">
                    <mxGeometry width="260" height="40" relative="1" as="geometry">
                        <mxPoint x="254" y="420" as="offset"/>
                    </mxGeometry>
                </mxCell>
                <mxCell id="129" value="Введите новую Фамилию" style="html=1;shadow=0;dashed=0;shape=mxgraph.bootstrap.rrect;rSize=5;strokeColor=#000000;strokeWidth=1;fillColor=#E9ECEF;fontColor=#505050;whiteSpace=wrap;align=left;verticalAlign=middle;spacingLeft=10;fontSize=14;labelBackgroundColor=none;" parent="121" vertex="1">
                    <mxGeometry x="475.86" y="136" width="280" height="30" as="geometry"/>
                </mxCell>
                <mxCell id="130" value="Введите новое место регистрации" style="html=1;shadow=0;dashed=0;shape=mxgraph.bootstrap.rrect;rSize=5;strokeColor=#000000;strokeWidth=1;fillColor=#E9ECEF;fontColor=#505050;whiteSpace=wrap;align=left;verticalAlign=middle;spacingLeft=10;fontSize=14;labelBackgroundColor=none;" parent="121" vertex="1">
                    <mxGeometry x="475.8600000000001" y="258" width="280" height="30" as="geometry"/>
                </mxCell>
                <mxCell id="138" value="Выберите из списка" style="html=1;shadow=0;dashed=0;shape=mxgraph.bootstrap.rrect;rSize=5;fillColor=#E9ECEF;strokeColor=#000000;align=left;spacing=15;fontSize=14;fontColor=#6C767D;labelBackgroundColor=none;" parent="121" vertex="1">
                    <mxGeometry x="475.86" y="299" width="279.14" height="30" as="geometry"/>
                </mxCell>
                <mxCell id="139" value="" style="shape=triangle;direction=south;fillColor=#343A40;strokeColor=#000000;perimeter=none;labelBackgroundColor=none;fontSize=20;fontColor=#006B00;" parent="138" vertex="1">
                    <mxGeometry x="1" y="0.5" width="7" height="3" relative="1" as="geometry">
                        <mxPoint x="-17" y="1" as="offset"/>
                    </mxGeometry>
                </mxCell>
                <mxCell id="143" value="&lt;font color=&quot;#000099&quot; style=&quot;font-size: 15px;&quot;&gt;&lt;span style=&quot;font-weight: normal; font-size: 15px;&quot;&gt;&lt;u style=&quot;font-size: 15px;&quot;&gt;Добавить&lt;/u&gt;&lt;/span&gt;&lt;/font&gt;" style="html=1;shadow=0;dashed=0;shape=mxgraph.bootstrap.rrect;rSize=5;strokeColor=none;strokeWidth=1;fillColor=none;fontColor=#000000;whiteSpace=wrap;align=left;verticalAlign=middle;spacingLeft=0;fontStyle=1;fontSize=15;spacing=5;labelBackgroundColor=none;" parent="121" vertex="1">
                    <mxGeometry x="481.86" y="343" width="79.14" height="20" as="geometry"/>
                </mxCell>
                <mxCell id="198" value="Введите новое Имя" style="html=1;shadow=0;dashed=0;shape=mxgraph.bootstrap.rrect;rSize=5;strokeColor=#000000;strokeWidth=1;fillColor=#E9ECEF;fontColor=#505050;whiteSpace=wrap;align=left;verticalAlign=middle;spacingLeft=10;fontSize=14;labelBackgroundColor=none;" parent="121" vertex="1">
                    <mxGeometry x="475.8600000000001" y="176" width="280" height="30" as="geometry"/>
                </mxCell>
                <mxCell id="199" value="Введите новое Отчество" style="html=1;shadow=0;dashed=0;shape=mxgraph.bootstrap.rrect;rSize=5;strokeColor=#000000;strokeWidth=1;fillColor=#E9ECEF;fontColor=#505050;whiteSpace=wrap;align=left;verticalAlign=middle;spacingLeft=10;fontSize=14;labelBackgroundColor=none;" parent="121" vertex="1">
                    <mxGeometry x="475" y="216" width="280" height="30" as="geometry"/>
                </mxCell>
                <mxCell id="164" value="&lt;div style=&quot;text-align: justify;&quot;&gt;&lt;span style=&quot;font-size: 20px;&quot;&gt;&lt;b&gt;&lt;span style=&quot;white-space: pre;&quot;&gt;&#9;&lt;/span&gt;&lt;span style=&quot;white-space: pre;&quot;&gt;&#9;&lt;/span&gt;&lt;span style=&quot;white-space: pre;&quot;&gt;&#9;&lt;/span&gt;Авторизация&lt;/b&gt;&lt;/span&gt;&lt;/div&gt;" style="html=1;shadow=0;dashed=0;shape=mxgraph.bootstrap.rrect;rSize=5;strokeColor=#666666;html=1;whiteSpace=wrap;fillColor=#D9D9D9;verticalAlign=bottom;align=left;spacing=20;spacingBottom=0;fontSize=14;gradientColor=#404040;gradientDirection=west;" parent="1" vertex="1">
                    <mxGeometry y="585" width="810" height="540" as="geometry"/>
                </mxCell>
                <mxCell id="165" value="&lt;span style=&quot;font-size: 20px;&quot;&gt;&lt;b&gt;Виртуальный офис&lt;/b&gt;&lt;/span&gt;" style="html=1;shadow=0;dashed=0;shape=mxgraph.bootstrap.topButton;rSize=5;perimeter=none;whiteSpace=wrap;fillColor=#f5f5f5;strokeColor=#666666;resizeWidth=1;fontSize=18;align=center;spacing=20;gradientColor=#FF99FF;fontColor=#000000;gradientDirection=east;" parent="164" vertex="1">
                    <mxGeometry width="810" height="50" relative="1" as="geometry"/>
                </mxCell>
                <mxCell id="166" value="&lt;u style=&quot;font-size: 20px;&quot;&gt;&lt;font color=&quot;#ff99ff&quot;&gt;Регистрация&lt;/font&gt;&lt;/u&gt;" style="html=1;shadow=0;dashed=0;shape=mxgraph.bootstrap.rrect;rSize=5;strokeColor=#FF99FF;strokeWidth=1;fillColor=none;whiteSpace=wrap;align=center;verticalAlign=middle;spacingLeft=0;fontStyle=0;fontSize=20;spacing=5;gradientColor=#b3b3b3;fontColor=#000000;" parent="164" vertex="1">
                    <mxGeometry x="50" y="84" width="190" height="28.8" as="geometry"/>
                </mxCell>
                <mxCell id="167" value="" style="html=1;shadow=0;dashed=0;shape=mxgraph.bootstrap.rrect;rSize=5;fillColor=none;strokeColor=#FFCCFF;align=left;spacing=15;fontSize=14;fontColor=#6C767D;" parent="164" vertex="1">
                    <mxGeometry width="330" height="30" relative="1" as="geometry">
                        <mxPoint x="50" y="152" as="offset"/>
                    </mxGeometry>
                </mxCell>
                <mxCell id="168" value="" style="html=1;shadow=0;dashed=0;shape=mxgraph.bootstrap.rrect;rSize=5;fillColor=none;strokeColor=#FFCCFF;align=left;spacing=15;fontSize=14;fontColor=#6C767D;" parent="164" vertex="1">
                    <mxGeometry width="330" height="30" relative="1" as="geometry">
                        <mxPoint x="50" y="391" as="offset"/>
                    </mxGeometry>
                </mxCell>
                <mxCell id="169" value="Регистрация" style="html=1;shadow=0;dashed=0;shape=mxgraph.bootstrap.rrect;rSize=5;fillColor=#952499;strokeColor=none;align=center;fontSize=16;fontColor=#FFFFFF;" parent="164" vertex="1">
                    <mxGeometry width="110" height="40" relative="1" as="geometry">
                        <mxPoint x="50" y="440" as="offset"/>
                    </mxGeometry>
                </mxCell>
                <mxCell id="170" value="E-mail / Телефон:" style="fillColor=none;strokeColor=none;align=left;fontSize=16;fontColor=#FFCCFF;" parent="164" vertex="1">
                    <mxGeometry width="260" height="30" relative="1" as="geometry">
                        <mxPoint x="50" y="122" as="offset"/>
                    </mxGeometry>
                </mxCell>
                <mxCell id="171" value="Мы не передадим Ваш e-mail третьим лицам" style="fillColor=none;strokeColor=none;align=left;spacing=2;fontSize=16;fontColor=#660066;" parent="164" vertex="1">
                    <mxGeometry width="350" height="30" relative="1" as="geometry">
                        <mxPoint x="450" y="50" as="offset"/>
                    </mxGeometry>
                </mxCell>
                <mxCell id="172" value="Подтвердите пароль:" style="fillColor=none;strokeColor=none;align=left;fontSize=16;fontColor=#FFCCFF;" parent="164" vertex="1">
                    <mxGeometry width="260" height="30" relative="1" as="geometry">
                        <mxPoint x="50" y="361" as="offset"/>
                    </mxGeometry>
                </mxCell>
                <mxCell id="173" value="" style="html=1;shadow=0;dashed=0;shape=mxgraph.bootstrap.rrect;rSize=5;fillColor=none;strokeColor=#FFCCFF;align=left;spacing=15;fontSize=14;fontColor=#6C767D;" parent="164" vertex="1">
                    <mxGeometry width="330" height="30" relative="1" as="geometry">
                        <mxPoint x="50" y="330" as="offset"/>
                    </mxGeometry>
                </mxCell>
                <mxCell id="174" value="Пароль:" style="fillColor=none;strokeColor=none;align=left;fontSize=16;fontColor=#FFCCFF;" parent="164" vertex="1">
                    <mxGeometry width="260" height="30" relative="1" as="geometry">
                        <mxPoint x="50" y="300" as="offset"/>
                    </mxGeometry>
                </mxCell>
                <mxCell id="175" value="" style="html=1;shadow=0;dashed=0;shape=mxgraph.bootstrap.rrect;rSize=5;fillColor=none;strokeColor=#FFCCFF;align=left;spacing=15;fontSize=14;fontColor=#6C767D;" parent="164" vertex="1">
                    <mxGeometry x="49.99999999999977" y="212" width="330" height="30" as="geometry"/>
                </mxCell>
                <mxCell id="176" value="Фамилия:" style="fillColor=none;strokeColor=none;align=left;fontSize=16;fontColor=#FFCCFF;" parent="164" vertex="1">
                    <mxGeometry x="50" y="182" width="260" height="30" as="geometry"/>
                </mxCell>
                <mxCell id="179" value="" style="html=1;shadow=0;dashed=0;shape=mxgraph.bootstrap.rrect;rSize=5;fillColor=none;strokeColor=#FFCCFF;align=left;spacing=15;fontSize=14;fontColor=#6C767D;" parent="164" vertex="1">
                    <mxGeometry x="49.99999999999977" y="272" width="330" height="30" as="geometry"/>
                </mxCell>
                <mxCell id="180" value="Имя:" style="fillColor=none;strokeColor=none;align=left;fontSize=16;fontColor=#FFCCFF;" parent="164" vertex="1">
                    <mxGeometry x="50" y="242" width="260" height="30" as="geometry"/>
                </mxCell>
                <mxCell id="200" value="&lt;blockquote style=&quot;margin: 0 0 0 40px; border: none; padding: 0px;&quot;&gt;&lt;blockquote style=&quot;margin: 0 0 0 40px; border: none; padding: 0px;&quot;&gt;&lt;div style=&quot;text-align: justify;&quot;&gt;&lt;span style=&quot;font-size: 20px;&quot;&gt;&lt;b&gt;&lt;font color=&quot;#990099&quot;&gt;&lt;span style=&quot;white-space: pre;&quot;&gt;&#9;&lt;/span&gt;&lt;span style=&quot;white-space: pre;&quot;&gt;&#9;&lt;/span&gt;&lt;span style=&quot;white-space: pre;&quot;&gt;&#9;&lt;/span&gt;&lt;span style=&quot;white-space: pre;&quot;&gt;&#9;&lt;/span&gt;&lt;span style=&quot;white-space: pre;&quot;&gt;&#9;&lt;/span&gt;&lt;span style=&quot;white-space: pre;&quot;&gt;&#9;&lt;/span&gt;&lt;span style=&quot;white-space: pre;&quot;&gt;&#9;&lt;/span&gt;&lt;span style=&quot;white-space: pre;&quot;&gt;&#9;&lt;/span&gt;&lt;span style=&quot;white-space: pre;&quot;&gt;&#9;&lt;/span&gt;&lt;span style=&quot;white-space: pre;&quot;&gt;&#9;&lt;/span&gt;&lt;span style=&quot;white-space: pre;&quot;&gt;&#9;&lt;/span&gt;&lt;span style=&quot;white-space: pre;&quot;&gt;&#9;&lt;/span&gt;Информация&lt;/font&gt;&lt;/b&gt;&lt;/span&gt;&lt;/div&gt;&lt;/blockquote&gt;&lt;/blockquote&gt;" style="html=1;shadow=0;dashed=0;shape=mxgraph.bootstrap.rrect;rSize=5;strokeColor=#666666;html=1;whiteSpace=wrap;fillColor=#f5f5f5;verticalAlign=bottom;align=left;spacing=20;spacingBottom=0;fontSize=14;gradientColor=#404040;gradientDirection=west;" parent="1" vertex="1">
                    <mxGeometry x="2481" y="15" width="810" height="540" as="geometry"/>
                </mxCell>
                <mxCell id="201" value="&lt;span style=&quot;font-size: 20px;&quot;&gt;&lt;b&gt;Виртуальный офис&lt;/b&gt;&lt;/span&gt;" style="html=1;shadow=0;dashed=0;shape=mxgraph.bootstrap.topButton;rSize=5;perimeter=none;whiteSpace=wrap;fillColor=#f5f5f5;strokeColor=#666666;resizeWidth=1;fontSize=18;align=center;spacing=20;gradientColor=#FF99FF;fontColor=#000000;gradientDirection=east;" parent="200" vertex="1">
                    <mxGeometry width="810" height="50" relative="1" as="geometry"/>
                </mxCell>
                <mxCell id="202" value="&lt;span style=&quot;font-size: 20px;&quot;&gt;&lt;u style=&quot;&quot;&gt;&lt;font color=&quot;#ff66ff&quot;&gt;Личные данные&lt;/font&gt;&lt;br&gt;&lt;br&gt;&lt;i style=&quot;&quot;&gt;&lt;b style=&quot;&quot;&gt;&lt;font color=&quot;#ffffff&quot;&gt;Документы&lt;/font&gt;&lt;/b&gt;&lt;/i&gt;&lt;br&gt;&lt;br&gt;&lt;font color=&quot;#ff66ff&quot;&gt;Собственность&lt;/font&gt;&lt;br&gt;&lt;/u&gt;&lt;/span&gt;&lt;u&gt;&lt;br&gt;&lt;/u&gt;&lt;u&gt;&lt;font color=&quot;#ff66ff&quot;&gt;Образование&lt;/font&gt;&lt;/u&gt;&lt;u&gt;&lt;br&gt;&lt;br&gt;&lt;/u&gt;&lt;span style=&quot;font-size: 20px;&quot;&gt;&lt;u style=&quot;&quot;&gt;&lt;font color=&quot;#ff66ff&quot;&gt;Планировщик&lt;/font&gt;&lt;br&gt;&lt;br&gt;&lt;font color=&quot;#ff66ff&quot;&gt;Контакты&lt;/font&gt;&lt;br&gt;&lt;br&gt;&lt;font color=&quot;#ff66ff&quot;&gt;История местоположений&lt;/font&gt;&lt;/u&gt;&lt;br&gt;&lt;/span&gt;&lt;span style=&quot;color: rgb(255, 102, 255); font-family: monospace; font-size: 0px; text-align: start;&quot;&gt;%3CmxGraphModel%3E%3Croot%3E%3CmxCell%20id%3D%220%22%2F%3E%3CmxCell%20id%3D%221%22%20parent%3D%220%22%2F%3E%3CmxCell%20id%3D%222%22%20value%3D%22%26lt%3Bp%20style%3D%26quot%3Bfont-size%3A%2012px%3B%26quot%3B%26gt%3B%26lt%3Bspan%20style%3D%26quot%3Bbackground-color%3A%20initial%3B%26quot%3B%26gt%3B%26lt%3Bb%26gt%3B1.%20%D0%94%D0%B0%D0%BD%D0%BD%D1%8B%D0%B5%20%D0%BF%D0%BE%D0%BB%D1%8C%D0%B7%D0%BE%D0%B2%D0%B0%D1%82%D0%B5%D0%BB%D1%8F%3A%26lt%3B%2Fb%26gt%3B%26lt%3B%2Fspan%26gt%3B%26lt%3B%2Fp%26gt%3B%22%20style%3D%22html%3D1%3Bshadow%3D0%3Bdashed%3D0%3Bshape%3Dmxgraph.bootstrap.rrect%3BrSize%3D5%3BstrokeColor%3D%231CA5B8%3BstrokeWidth%3D1%3BfillColor%3D%23FFFF33%3BfontColor%3D%23000000%3BwhiteSpace%3Dwrap%3Balign%3Dcenter%3BverticalAlign%3Dmiddle%3BspacingLeft%3D0%3BfontStyle%3D0%3BfontSize%3D12%3Bspacing%3D5%3BlabelPosition%3Dcenter%3BverticalLabelPosition%3Dmiddle%3B%22%20vertex%3D%221%22%20parent%3D%221%22%3E%3CmxGeometry%20x%3D%22570%22%20y%3D%22-630%22%20width%3D%22160%22%20height%3D%2230%22%20as%3D%22geometry%22%2F%3E%3C%2FmxCell%3E%3CmxCell%20id%3D%223%22%20value%3D%22%26lt%3Bp%20style%3D%26quot%3B%26quot%3B%26gt%3B2.%20%D0%94%D0%BE%D0%BA%D1%83%D0%BC%D0%B5%D0%BD%D1%82%D1%8B%26lt%3B%2Fp%26gt%3B%22%20style%3D%22html%3D1%3Bshadow%3D0%3Bdashed%3D0%3Bshape%3Dmxgraph.bootstrap.rrect%3BrSize%3D5%3BstrokeColor%3D%231CA5B8%3BstrokeWidth%3D1%3BfillColor%3D%23FFFF33%3BfontColor%3D%23000000%3BwhiteSpace%3Dwrap%3Balign%3Dcenter%3BverticalAlign%3Dmiddle%3BspacingLeft%3D0%3BfontStyle%3D1%3BfontSize%3D12%3Bspacing%3D5%3BlabelPosition%3Dcenter%3BverticalLabelPosition%3Dmiddle%3B%22%20vertex%3D%221%22%20parent%3D%221%22%3E%3CmxGeometry%20x%3D%22570%22%20y%3D%22-600%22%20width%3D%22160%22%20height%3D%2230%22%20as%3D%22geometry%22%2F%3E%3C%2FmxCell%3E%3CmxCell%20id%3D%224%22%20value%3D%22%26lt%3Bdiv%20style%3D%26quot%3B%26quot%3B%26gt%3B%26lt%3Bspan%20style%3D%26quot%3Bbackground-color%3A%20initial%3B%26quot%3B%26gt%3B3.%20%D0%A1%D0%BE%D0%B1%D1%81%D1%82%D0%B2%D0%B5%D0%BD%D0%BD%D0%BE%D1%81%D1%82%D1%8C%26lt%3B%2Fspan%26gt%3B%26lt%3B%2Fdiv%26gt%3B%22%20style%3D%22html%3D1%3Bshadow%3D0%3Bdashed%3D0%3Bshape%3Dmxgraph.bootstrap.rrect%3BrSize%3D5%3BstrokeColor%3D%231CA5B8%3BstrokeWidth%3D1%3BfillColor%3D%23FFFF33%3BfontColor%3D%23000000%3BwhiteSpace%3Dwrap%3Balign%3Dcenter%3BverticalAlign%3Dmiddle%3BspacingLeft%3D0%3BfontStyle%3D1%3BfontSize%3D12%3Bspacing%3D5%3BlabelPosition%3Dcenter%3BverticalLabelPosition%3Dmiddle%3B%22%20vertex%3D%221%22%20parent%3D%221%22%3E%3CmxGeometry%20x%3D%22570%22%20y%3D%22-570%22%20width%3D%22160%22%20height%3D%2230%22%20as%3D%22geometry%22%2F%3E%3C%2FmxCell%3E%3CmxCell%20id%3D%225%22%20value%3D%22%26lt%3Bdiv%20style%3D%26quot%3B%26quot%3B%26gt%3B%26lt%3Bspan%20style%3D%26quot%3Bbackground-color%3A%20initial%3B%26quot%3B%26gt%3B4.%20%D0%9E%D0%B1%D1%80%D0%B0%D0%B7%D0%BE%D0%B2%D0%B0%D0%BD%D0%B8%D0%B5%26lt%3B%2Fspan%26gt%3B%26lt%3B%2Fdiv%26gt%3B%22%20style%3D%22html%3D1%3Bshadow%3D0%3Bdashed%3D0%3Bshape%3Dmxgraph.bootstrap.rrect%3BrSize%3D5%3BstrokeColor%3D%231CA5B8%3BstrokeWidth%3D1%3BfillColor%3D%23FFFF33%3BfontColor%3D%23000000%3BwhiteSpace%3Dwrap%3Balign%3Dcenter%3BverticalAlign%3Dmiddle%3BspacingLeft%3D0%3BfontStyle%3D1%3BfontSize%3D12%3Bspacing%3D5%3BlabelPosition%3Dcenter%3BverticalLabelPosition%3Dmiddle%3B%22%20vertex%3D%221%22%20parent%3D%221%22%3E%3CmxGeometry%20x%3D%22570%22%20y%3D%22-540%22%20width%3D%22160%22%20height%3D%2230%22%20as%3D%22geometry%22%2F%3E%3C%2FmxCell%3E%3CmxCell%20id%3D%226%22%20value%3D%22%26lt%3Bdiv%20style%3D%26quot%3B%26quot%3B%26gt%3B%26lt%3Bspan%20style%3D%26quot%3Bbackground-color%3A%20initial%3B%26quot%3B%26gt%3B5.%20%D0%9F%D0%BB%D0%B0%D0%BD%D0%B8%D1%80%D0%BE%D0%B2%D1%89%D0%B8%D0%BA%26lt%3B%2Fspan%26gt%3B%26lt%3B%2Fdiv%26gt%3B%22%20style%3D%22html%3D1%3Bshadow%3D0%3Bdashed%3D0%3Bshape%3Dmxgraph.bootstrap.rrect%3BrSize%3D5%3BstrokeColor%3D%231CA5B8%3BstrokeWidth%3D1%3BfillColor%3D%23FFFF33%3BfontColor%3D%23000000%3BwhiteSpace%3Dwrap%3Balign%3Dcenter%3BverticalAlign%3Dmiddle%3BspacingLeft%3D0%3BfontStyle%3D1%3BfontSize%3D12%3Bspacing%3D5%3BlabelPosition%3Dcenter%3BverticalLabelPosition%3Dmiddle%3B%22%20vertex%3D%221%22%20parent%3D%221%22%3E%3CmxGeometry%20x%3D%22570%22%20y%3D%22-510%22%20width%3D%22160%22%20height%3D%2230%22%20as%3D%22geometry%22%2F%3E%3C%2FmxCell%3E%3CmxCell%20id%3D%227%22%20value%3D%22%26lt%3Bdiv%20style%3D%26quot%3B%26quot%3B%26gt%3B%26lt%3Bspan%20style%3D%26quot%3Bbackground-color%3A%20initial%3B%26quot%3B%26gt%3B6.%20%D0%9A%D0%BE%D0%BD%D1%82%D0%B0%D0%BA%D1%82%D1%8B%26lt%3B%2Fspan%26gt%3B%26lt%3B%2Fdiv%26gt%3B%22%20style%3D%22html%3D1%3Bshadow%3D0%3Bdashed%3D0%3Bshape%3Dmxgraph.bootstrap.rrect%3BrSize%3D5%3BstrokeColor%3D%231CA5B8%3BstrokeWidth%3D1%3BfillColor%3D%23FFFF33%3BfontColor%3D%23000000%3BwhiteSpace%3Dwrap%3Balign%3Dcenter%3BverticalAlign%3Dmiddle%3BspacingLeft%3D0%3BfontStyle%3D1%3BfontSize%3D12%3Bspacing%3D5%3BlabelPosition%3Dcenter%3BverticalLabelPosition%3Dmiddle%3B%22%20vertex%3D%221%22%20parent%3D%221%22%3E%3CmxGeometry%20x%3D%22570%22%20y%3D%22-480%22%20width%3D%22160%22%20height%3D%2230%22%20as%3D%22geometry%22%2F%3E%3C%2FmxCell%3E%3CmxCell%20id%3D%228%22%20value%3D%22%26lt%3Bdiv%20style%3D%26quot%3B%26quot%3B%26gt%3B%26lt%3Bspan%20style%3D%26quot%3Bbackground-color%3A%20initial%3B%26quot%3B%26gt%3B7.%20%D0%98%D1%81%D1%82%D0%BE%D1%80%D0%B8%D1%8F%20%D0%BC%D0%B5%D1%81%D1%82%D0%BE%D0%BF%D0%BE%D0%BB%D0%BE%D0%B6%D0%B5%D0%BD%D0%B8%D0%B9%26lt%3B%2Fspan%26gt%3B%26lt%3B%2Fdiv%26gt%3B%22%20style%3D%22html%3D1%3Bshadow%3D0%3Bdashed%3D0%3Bshape%3Dmxgraph.bootstrap.rrect%3BrSize%3D5%3BstrokeColor%3D%231CA5B8%3BstrokeWidth%3D1%3BfillColor%3D%23FFFF33%3BfontColor%3D%23000000%3BwhiteSpace%3Dwrap%3Balign%3Dcenter%3BverticalAlign%3Dmiddle%3BspacingLeft%3D0%3BfontStyle%3D1%3BfontSize%3D12%3Bspacing%3D5%3BlabelPosition%3Dcenter%3BverticalLabelPosition%3Dmiddle%3B%22%20vertex%3D%221%22%20parent%3D%221%22%3E%3CmxGeometry%20x%3D%22570%22%20y%3D%22-450%22%20width%3D%22160%22%20height%3D%2240%22%20as%3D%22geometry%22%2F%3E%3C%2FmxCell%3E%3C%2Froot%3E%3C%2FmxGraphModel%3EЛтиьбю&lt;/span&gt;&lt;u style=&quot;font-size: 20px;&quot;&gt;&lt;b&gt;&lt;br&gt;&lt;/b&gt;&lt;/u&gt;" style="html=1;shadow=0;dashed=0;shape=mxgraph.bootstrap.rrect;rSize=5;strokeColor=#666666;strokeWidth=1;fillColor=none;whiteSpace=wrap;align=center;verticalAlign=middle;spacingLeft=0;fontStyle=0;fontSize=20;spacing=5;gradientColor=#b3b3b3;fontColor=#000000;" parent="200" vertex="1">
                    <mxGeometry y="50" width="254" height="400" as="geometry"/>
                </mxCell>
                <mxCell id="205" value="Обновить данные через Госуслуги" style="html=1;shadow=0;dashed=0;shape=mxgraph.bootstrap.rrect;rSize=5;fillColor=#952499;strokeColor=none;align=center;fontSize=16;fontColor=#FFFFFF;" parent="200" vertex="1">
                    <mxGeometry width="280" height="40" relative="1" as="geometry">
                        <mxPoint x="274" y="485" as="offset"/>
                    </mxGeometry>
                </mxCell>
                <mxCell id="220" value="&lt;div style=&quot;text-align: left;&quot;&gt;&lt;u style=&quot;background-color: initial;&quot;&gt;&lt;b&gt;&lt;font color=&quot;#660066&quot;&gt;&amp;nbsp;Паспорт&lt;/font&gt;&lt;/b&gt;&lt;/u&gt;&lt;/div&gt;&lt;u style=&quot;&quot;&gt;&lt;font color=&quot;#660066&quot;&gt;&lt;div style=&quot;text-align: left;&quot;&gt;&lt;b&gt;&lt;br&gt;&lt;/b&gt;&lt;/div&gt;&lt;div style=&quot;font-size: 20px; font-weight: bold; text-align: left;&quot;&gt;&lt;u style=&quot;background-color: initial; font-weight: normal;&quot;&gt;&lt;b&gt;&amp;nbsp;СНИЛС&lt;/b&gt;&lt;/u&gt;&lt;/div&gt;&lt;div style=&quot;text-align: left;&quot;&gt;&lt;b&gt;&lt;br&gt;&lt;/b&gt;&lt;/div&gt;&lt;b style=&quot;font-size: 20px;&quot;&gt;&lt;div style=&quot;text-align: left;&quot;&gt;&lt;u style=&quot;background-color: initial; font-weight: normal;&quot;&gt;&lt;b&gt;&amp;nbsp;ИНН&lt;/b&gt;&lt;/u&gt;&lt;/div&gt;&lt;/b&gt;&lt;br&gt;&lt;div style=&quot;text-align: left;&quot;&gt;&lt;u style=&quot;background-color: initial;&quot;&gt;&lt;b&gt;&amp;nbsp;Водительское&amp;nbsp; &amp;nbsp;удостоверение&lt;/b&gt;&lt;/u&gt;&lt;/div&gt;&lt;br&gt;&lt;div style=&quot;text-align: left;&quot;&gt;&lt;u style=&quot;background-color: initial;&quot;&gt;&lt;b&gt;&amp;nbsp;Загранпаспорт&lt;/b&gt;&lt;/u&gt;&lt;/div&gt;&lt;/font&gt;&lt;/u&gt;" style="html=1;shadow=0;dashed=0;shape=mxgraph.bootstrap.rrect;rSize=5;strokeColor=#000000;strokeWidth=1;fillColor=none;whiteSpace=wrap;align=center;verticalAlign=middle;spacingLeft=0;fontStyle=0;fontSize=20;spacing=5;gradientColor=#b3b3b3;fontColor=#000000;" parent="200" vertex="1">
                    <mxGeometry x="294.5" y="155" width="221" height="270" as="geometry"/>
                </mxCell>
                <mxCell id="222" value="&lt;font color=&quot;#990099&quot; style=&quot;font-size: 24px;&quot;&gt;Иванов Иван Иванович&lt;/font&gt;" style="rounded=1;whiteSpace=wrap;html=1;arcSize=50;strokeColor=none;strokeWidth=1;fillColor=none;fontColor=#000000;whiteSpace=wrap;align=left;verticalAlign=middle;spacingLeft=0;fontStyle=1;fontSize=14;spacing=10;" parent="200" vertex="1">
                    <mxGeometry x="439" y="83" width="361" height="35" as="geometry"/>
                </mxCell>
                <mxCell id="223" value="&lt;blockquote style=&quot;margin: 0 0 0 40px; border: none; padding: 0px;&quot;&gt;&lt;blockquote style=&quot;margin: 0 0 0 40px; border: none; padding: 0px;&quot;&gt;&lt;div style=&quot;text-align: justify;&quot;&gt;&lt;span style=&quot;font-size: 20px;&quot;&gt;&lt;b&gt;&lt;font color=&quot;#990099&quot;&gt;&lt;span style=&quot;white-space: pre;&quot;&gt;&#9;&lt;/span&gt;&lt;span style=&quot;white-space: pre;&quot;&gt;&#9;&lt;/span&gt;&lt;span style=&quot;white-space: pre;&quot;&gt;&#9;&lt;/span&gt;&lt;span style=&quot;white-space: pre;&quot;&gt;&#9;&lt;/span&gt;&lt;span style=&quot;white-space: pre;&quot;&gt;&#9;&lt;/span&gt;&lt;span style=&quot;white-space: pre;&quot;&gt;&#9;&lt;/span&gt;&lt;span style=&quot;white-space: pre;&quot;&gt;&#9;&lt;/span&gt;&lt;span style=&quot;white-space: pre;&quot;&gt;&#9;&lt;/span&gt;&lt;span style=&quot;white-space: pre;&quot;&gt;&#9;&lt;/span&gt;&lt;span style=&quot;white-space: pre;&quot;&gt;&#9;&lt;/span&gt;&lt;span style=&quot;white-space: pre;&quot;&gt;&#9;&lt;/span&gt;&lt;span style=&quot;white-space: pre;&quot;&gt;&#9;&lt;/span&gt;Информация&lt;/font&gt;&lt;/b&gt;&lt;/span&gt;&lt;/div&gt;&lt;/blockquote&gt;&lt;/blockquote&gt;" style="html=1;shadow=0;dashed=0;shape=mxgraph.bootstrap.rrect;rSize=5;strokeColor=#666666;html=1;whiteSpace=wrap;fillColor=#f5f5f5;verticalAlign=bottom;align=left;spacing=20;spacingBottom=0;fontSize=14;gradientColor=#404040;gradientDirection=west;" parent="1" vertex="1">
                    <mxGeometry x="2481" y="580" width="810" height="540" as="geometry"/>
                </mxCell>
                <mxCell id="224" value="&lt;span style=&quot;font-size: 20px;&quot;&gt;&lt;b&gt;Виртуальный офис&lt;/b&gt;&lt;/span&gt;" style="html=1;shadow=0;dashed=0;shape=mxgraph.bootstrap.topButton;rSize=5;perimeter=none;whiteSpace=wrap;fillColor=#f5f5f5;strokeColor=#666666;resizeWidth=1;fontSize=18;align=center;spacing=20;gradientColor=#FF99FF;fontColor=#000000;gradientDirection=east;" parent="223" vertex="1">
                    <mxGeometry width="810" height="50" relative="1" as="geometry"/>
                </mxCell>
                <mxCell id="225" value="&lt;span style=&quot;font-size: 20px;&quot;&gt;&lt;u style=&quot;&quot;&gt;&lt;font color=&quot;#ff66ff&quot;&gt;Личные данные&lt;/font&gt;&lt;br&gt;&lt;br&gt;&lt;i style=&quot;&quot;&gt;&lt;b style=&quot;&quot;&gt;&lt;font color=&quot;#ffffff&quot;&gt;Документы&lt;/font&gt;&lt;/b&gt;&lt;/i&gt;&lt;br&gt;&lt;br&gt;&lt;font color=&quot;#ff66ff&quot;&gt;Собственность&lt;/font&gt;&lt;br&gt;&lt;/u&gt;&lt;/span&gt;&lt;u&gt;&lt;br&gt;&lt;/u&gt;&lt;u&gt;&lt;font color=&quot;#ff66ff&quot;&gt;Образование&lt;/font&gt;&lt;/u&gt;&lt;u&gt;&lt;br&gt;&lt;br&gt;&lt;/u&gt;&lt;span style=&quot;font-size: 20px;&quot;&gt;&lt;u style=&quot;&quot;&gt;&lt;font color=&quot;#ff66ff&quot;&gt;Планировщик&lt;/font&gt;&lt;br&gt;&lt;br&gt;&lt;font color=&quot;#ff66ff&quot;&gt;Контакты&lt;/font&gt;&lt;br&gt;&lt;br&gt;&lt;font color=&quot;#ff66ff&quot;&gt;История местоположений&lt;/font&gt;&lt;/u&gt;&lt;br&gt;&lt;/span&gt;&lt;span style=&quot;color: rgb(255, 102, 255); font-family: monospace; font-size: 0px; text-align: start;&quot;&gt;%3CmxGraphModel%3E%3Croot%3E%3CmxCell%20id%3D%220%22%2F%3E%3CmxCell%20id%3D%221%22%20parent%3D%220%22%2F%3E%3CmxCell%20id%3D%222%22%20value%3D%22%26lt%3Bp%20style%3D%26quot%3Bfont-size%3A%2012px%3B%26quot%3B%26gt%3B%26lt%3Bspan%20style%3D%26quot%3Bbackground-color%3A%20initial%3B%26quot%3B%26gt%3B%26lt%3Bb%26gt%3B1.%20%D0%94%D0%B0%D0%BD%D0%BD%D1%8B%D0%B5%20%D0%BF%D0%BE%D0%BB%D1%8C%D0%B7%D0%BE%D0%B2%D0%B0%D1%82%D0%B5%D0%BB%D1%8F%3A%26lt%3B%2Fb%26gt%3B%26lt%3B%2Fspan%26gt%3B%26lt%3B%2Fp%26gt%3B%22%20style%3D%22html%3D1%3Bshadow%3D0%3Bdashed%3D0%3Bshape%3Dmxgraph.bootstrap.rrect%3BrSize%3D5%3BstrokeColor%3D%231CA5B8%3BstrokeWidth%3D1%3BfillColor%3D%23FFFF33%3BfontColor%3D%23000000%3BwhiteSpace%3Dwrap%3Balign%3Dcenter%3BverticalAlign%3Dmiddle%3BspacingLeft%3D0%3BfontStyle%3D0%3BfontSize%3D12%3Bspacing%3D5%3BlabelPosition%3Dcenter%3BverticalLabelPosition%3Dmiddle%3B%22%20vertex%3D%221%22%20parent%3D%221%22%3E%3CmxGeometry%20x%3D%22570%22%20y%3D%22-630%22%20width%3D%22160%22%20height%3D%2230%22%20as%3D%22geometry%22%2F%3E%3C%2FmxCell%3E%3CmxCell%20id%3D%223%22%20value%3D%22%26lt%3Bp%20style%3D%26quot%3B%26quot%3B%26gt%3B2.%20%D0%94%D0%BE%D0%BA%D1%83%D0%BC%D0%B5%D0%BD%D1%82%D1%8B%26lt%3B%2Fp%26gt%3B%22%20style%3D%22html%3D1%3Bshadow%3D0%3Bdashed%3D0%3Bshape%3Dmxgraph.bootstrap.rrect%3BrSize%3D5%3BstrokeColor%3D%231CA5B8%3BstrokeWidth%3D1%3BfillColor%3D%23FFFF33%3BfontColor%3D%23000000%3BwhiteSpace%3Dwrap%3Balign%3Dcenter%3BverticalAlign%3Dmiddle%3BspacingLeft%3D0%3BfontStyle%3D1%3BfontSize%3D12%3Bspacing%3D5%3BlabelPosition%3Dcenter%3BverticalLabelPosition%3Dmiddle%3B%22%20vertex%3D%221%22%20parent%3D%221%22%3E%3CmxGeometry%20x%3D%22570%22%20y%3D%22-600%22%20width%3D%22160%22%20height%3D%2230%22%20as%3D%22geometry%22%2F%3E%3C%2FmxCell%3E%3CmxCell%20id%3D%224%22%20value%3D%22%26lt%3Bdiv%20style%3D%26quot%3B%26quot%3B%26gt%3B%26lt%3Bspan%20style%3D%26quot%3Bbackground-color%3A%20initial%3B%26quot%3B%26gt%3B3.%20%D0%A1%D0%BE%D0%B1%D1%81%D1%82%D0%B2%D0%B5%D0%BD%D0%BD%D0%BE%D1%81%D1%82%D1%8C%26lt%3B%2Fspan%26gt%3B%26lt%3B%2Fdiv%26gt%3B%22%20style%3D%22html%3D1%3Bshadow%3D0%3Bdashed%3D0%3Bshape%3Dmxgraph.bootstrap.rrect%3BrSize%3D5%3BstrokeColor%3D%231CA5B8%3BstrokeWidth%3D1%3BfillColor%3D%23FFFF33%3BfontColor%3D%23000000%3BwhiteSpace%3Dwrap%3Balign%3Dcenter%3BverticalAlign%3Dmiddle%3BspacingLeft%3D0%3BfontStyle%3D1%3BfontSize%3D12%3Bspacing%3D5%3BlabelPosition%3Dcenter%3BverticalLabelPosition%3Dmiddle%3B%22%20vertex%3D%221%22%20parent%3D%221%22%3E%3CmxGeometry%20x%3D%22570%22%20y%3D%22-570%22%20width%3D%22160%22%20height%3D%2230%22%20as%3D%22geometry%22%2F%3E%3C%2FmxCell%3E%3CmxCell%20id%3D%225%22%20value%3D%22%26lt%3Bdiv%20style%3D%26quot%3B%26quot%3B%26gt%3B%26lt%3Bspan%20style%3D%26quot%3Bbackground-color%3A%20initial%3B%26quot%3B%26gt%3B4.%20%D0%9E%D0%B1%D1%80%D0%B0%D0%B7%D0%BE%D0%B2%D0%B0%D0%BD%D0%B8%D0%B5%26lt%3B%2Fspan%26gt%3B%26lt%3B%2Fdiv%26gt%3B%22%20style%3D%22html%3D1%3Bshadow%3D0%3Bdashed%3D0%3Bshape%3Dmxgraph.bootstrap.rrect%3BrSize%3D5%3BstrokeColor%3D%231CA5B8%3BstrokeWidth%3D1%3BfillColor%3D%23FFFF33%3BfontColor%3D%23000000%3BwhiteSpace%3Dwrap%3Balign%3Dcenter%3BverticalAlign%3Dmiddle%3BspacingLeft%3D0%3BfontStyle%3D1%3BfontSize%3D12%3Bspacing%3D5%3BlabelPosition%3Dcenter%3BverticalLabelPosition%3Dmiddle%3B%22%20vertex%3D%221%22%20parent%3D%221%22%3E%3CmxGeometry%20x%3D%22570%22%20y%3D%22-540%22%20width%3D%22160%22%20height%3D%2230%22%20as%3D%22geometry%22%2F%3E%3C%2FmxCell%3E%3CmxCell%20id%3D%226%22%20value%3D%22%26lt%3Bdiv%20style%3D%26quot%3B%26quot%3B%26gt%3B%26lt%3Bspan%20style%3D%26quot%3Bbackground-color%3A%20initial%3B%26quot%3B%26gt%3B5.%20%D0%9F%D0%BB%D0%B0%D0%BD%D0%B8%D1%80%D0%BE%D0%B2%D1%89%D0%B8%D0%BA%26lt%3B%2Fspan%26gt%3B%26lt%3B%2Fdiv%26gt%3B%22%20style%3D%22html%3D1%3Bshadow%3D0%3Bdashed%3D0%3Bshape%3Dmxgraph.bootstrap.rrect%3BrSize%3D5%3BstrokeColor%3D%231CA5B8%3BstrokeWidth%3D1%3BfillColor%3D%23FFFF33%3BfontColor%3D%23000000%3BwhiteSpace%3Dwrap%3Balign%3Dcenter%3BverticalAlign%3Dmiddle%3BspacingLeft%3D0%3BfontStyle%3D1%3BfontSize%3D12%3Bspacing%3D5%3BlabelPosition%3Dcenter%3BverticalLabelPosition%3Dmiddle%3B%22%20vertex%3D%221%22%20parent%3D%221%22%3E%3CmxGeometry%20x%3D%22570%22%20y%3D%22-510%22%20width%3D%22160%22%20height%3D%2230%22%20as%3D%22geometry%22%2F%3E%3C%2FmxCell%3E%3CmxCell%20id%3D%227%22%20value%3D%22%26lt%3Bdiv%20style%3D%26quot%3B%26quot%3B%26gt%3B%26lt%3Bspan%20style%3D%26quot%3Bbackground-color%3A%20initial%3B%26quot%3B%26gt%3B6.%20%D0%9A%D0%BE%D0%BD%D1%82%D0%B0%D0%BA%D1%82%D1%8B%26lt%3B%2Fspan%26gt%3B%26lt%3B%2Fdiv%26gt%3B%22%20style%3D%22html%3D1%3Bshadow%3D0%3Bdashed%3D0%3Bshape%3Dmxgraph.bootstrap.rrect%3BrSize%3D5%3BstrokeColor%3D%231CA5B8%3BstrokeWidth%3D1%3BfillColor%3D%23FFFF33%3BfontColor%3D%23000000%3BwhiteSpace%3Dwrap%3Balign%3Dcenter%3BverticalAlign%3Dmiddle%3BspacingLeft%3D0%3BfontStyle%3D1%3BfontSize%3D12%3Bspacing%3D5%3BlabelPosition%3Dcenter%3BverticalLabelPosition%3Dmiddle%3B%22%20vertex%3D%221%22%20parent%3D%221%22%3E%3CmxGeometry%20x%3D%22570%22%20y%3D%22-480%22%20width%3D%22160%22%20height%3D%2230%22%20as%3D%22geometry%22%2F%3E%3C%2FmxCell%3E%3CmxCell%20id%3D%228%22%20value%3D%22%26lt%3Bdiv%20style%3D%26quot%3B%26quot%3B%26gt%3B%26lt%3Bspan%20style%3D%26quot%3Bbackground-color%3A%20initial%3B%26quot%3B%26gt%3B7.%20%D0%98%D1%81%D1%82%D0%BE%D1%80%D0%B8%D1%8F%20%D0%BC%D0%B5%D1%81%D1%82%D0%BE%D0%BF%D0%BE%D0%BB%D0%BE%D0%B6%D0%B5%D0%BD%D0%B8%D0%B9%26lt%3B%2Fspan%26gt%3B%26lt%3B%2Fdiv%26gt%3B%22%20style%3D%22html%3D1%3Bshadow%3D0%3Bdashed%3D0%3Bshape%3Dmxgraph.bootstrap.rrect%3BrSize%3D5%3BstrokeColor%3D%231CA5B8%3BstrokeWidth%3D1%3BfillColor%3D%23FFFF33%3BfontColor%3D%23000000%3BwhiteSpace%3Dwrap%3Balign%3Dcenter%3BverticalAlign%3Dmiddle%3BspacingLeft%3D0%3BfontStyle%3D1%3BfontSize%3D12%3Bspacing%3D5%3BlabelPosition%3Dcenter%3BverticalLabelPosition%3Dmiddle%3B%22%20vertex%3D%221%22%20parent%3D%221%22%3E%3CmxGeometry%20x%3D%22570%22%20y%3D%22-450%22%20width%3D%22160%22%20height%3D%2240%22%20as%3D%22geometry%22%2F%3E%3C%2FmxCell%3E%3C%2Froot%3E%3C%2FmxGraphModel%3EЛтиьбю&lt;/span&gt;&lt;u style=&quot;font-size: 20px;&quot;&gt;&lt;b&gt;&lt;br&gt;&lt;/b&gt;&lt;/u&gt;" style="html=1;shadow=0;dashed=0;shape=mxgraph.bootstrap.rrect;rSize=5;strokeColor=#666666;strokeWidth=1;fillColor=none;whiteSpace=wrap;align=center;verticalAlign=middle;spacingLeft=0;fontStyle=0;fontSize=20;spacing=5;gradientColor=#b3b3b3;fontColor=#000000;" parent="223" vertex="1">
                    <mxGeometry y="50" width="254" height="400" as="geometry"/>
                </mxCell>
                <mxCell id="226" value="Обновить данные через Госуслуги" style="html=1;shadow=0;dashed=0;shape=mxgraph.bootstrap.rrect;rSize=5;fillColor=#952499;strokeColor=none;align=center;fontSize=16;fontColor=#FFFFFF;" parent="223" vertex="1">
                    <mxGeometry width="280" height="40" relative="1" as="geometry">
                        <mxPoint x="274" y="485" as="offset"/>
                    </mxGeometry>
                </mxCell>
                <mxCell id="227" value="&lt;div style=&quot;text-align: left;&quot;&gt;&lt;span style=&quot;color: rgb(102, 0, 102); background-color: initial;&quot;&gt;&lt;span style=&quot;font-weight: normal;&quot;&gt;&lt;u&gt;Серия:&lt;/u&gt;&lt;/span&gt; 1400&amp;nbsp; &lt;span style=&quot;font-weight: normal;&quot;&gt;&lt;u&gt;Номер:&lt;/u&gt;&amp;nbsp;&lt;/span&gt;133330&amp;nbsp;&lt;/span&gt;&lt;/div&gt;&lt;font color=&quot;#660066&quot;&gt;&lt;div style=&quot;text-align: left;&quot;&gt;&lt;span&gt;&lt;span&gt;&lt;br&gt;&lt;/span&gt;&lt;/span&gt;&lt;/div&gt;&lt;div style=&quot;text-align: left;&quot;&gt;&lt;span style=&quot;background-color: initial;&quot;&gt;&lt;span style=&quot;font-weight: normal;&quot;&gt;&lt;u&gt;Дата выдачи:&lt;/u&gt;&lt;/span&gt; 05.05.2005&lt;/span&gt;&lt;/div&gt;&lt;span style=&quot;&quot;&gt;&lt;div style=&quot;text-align: left;&quot;&gt;&lt;span&gt;&lt;br&gt;&lt;/span&gt;&lt;/div&gt;&lt;span style=&quot;font-weight: normal;&quot;&gt;&lt;u&gt;Выдан:&lt;/u&gt;&lt;/span&gt; МВД Московской области&lt;br&gt;&lt;br&gt;&lt;div style=&quot;text-align: left;&quot;&gt;&lt;span style=&quot;background-color: initial;&quot;&gt;&lt;span style=&quot;font-weight: normal;&quot;&gt;&lt;u&gt;Код подразделения:&lt;/u&gt;&lt;/span&gt; 310-025&lt;/span&gt;&lt;/div&gt;&lt;/span&gt;&lt;/font&gt;" style="html=1;shadow=0;dashed=0;shape=mxgraph.bootstrap.rrect;rSize=5;strokeColor=#000000;strokeWidth=1;fillColor=none;whiteSpace=wrap;align=center;verticalAlign=middle;spacingLeft=0;fontStyle=1;fontSize=20;spacing=5;gradientColor=#b3b3b3;fontColor=#000000;" parent="223" vertex="1">
                    <mxGeometry x="270" y="118" width="360" height="222" as="geometry"/>
                </mxCell>
                <mxCell id="228" value="&lt;font color=&quot;#990099&quot; style=&quot;font-size: 24px;&quot;&gt;Паспорт&lt;/font&gt;" style="rounded=1;whiteSpace=wrap;html=1;arcSize=50;strokeColor=none;strokeWidth=1;fillColor=none;fontColor=#000000;whiteSpace=wrap;align=left;verticalAlign=middle;spacingLeft=0;fontStyle=1;fontSize=14;spacing=10;" parent="223" vertex="1">
                    <mxGeometry x="669" y="83" width="121" height="35" as="geometry"/>
                </mxCell>
                <mxCell id="229" value="Изменить данные" style="html=1;shadow=0;dashed=0;shape=mxgraph.bootstrap.rrect;rSize=5;fillColor=#952499;strokeColor=none;align=center;fontSize=16;fontColor=#FFFFFF;" parent="223" vertex="1">
                    <mxGeometry width="170" height="40" relative="1" as="geometry">
                        <mxPoint x="270" y="380" as="offset"/>
                    </mxGeometry>
                </mxCell>
                <mxCell id="250" value="Удалить документ" style="html=1;shadow=0;dashed=0;shape=mxgraph.bootstrap.rrect;rSize=5;fillColor=#952499;strokeColor=none;align=center;fontSize=16;fontColor=#FFFFFF;" parent="223" vertex="1">
                    <mxGeometry width="170" height="40" relative="1" as="geometry">
                        <mxPoint x="460" y="380" as="offset"/>
                    </mxGeometry>
                </mxCell>
                <mxCell id="230" value="&lt;blockquote style=&quot;margin: 0 0 0 40px; border: none; padding: 0px;&quot;&gt;&lt;blockquote style=&quot;margin: 0 0 0 40px; border: none; padding: 0px;&quot;&gt;&lt;div style=&quot;text-align: justify;&quot;&gt;&lt;span style=&quot;font-size: 20px;&quot;&gt;&lt;b&gt;&lt;font color=&quot;#990099&quot;&gt;&lt;span style=&quot;white-space: pre;&quot;&gt;&#9;&lt;/span&gt;&lt;span style=&quot;white-space: pre;&quot;&gt;&#9;&lt;/span&gt;&lt;span style=&quot;white-space: pre;&quot;&gt;&#9;&lt;/span&gt;&lt;span style=&quot;white-space: pre;&quot;&gt;&#9;&lt;/span&gt;&lt;span style=&quot;white-space: pre;&quot;&gt;&#9;&lt;/span&gt;&lt;span style=&quot;white-space: pre;&quot;&gt;&#9;&lt;/span&gt;&lt;span style=&quot;white-space: pre;&quot;&gt;&#9;&lt;/span&gt;&lt;span style=&quot;white-space: pre;&quot;&gt;&#9;&lt;/span&gt;&lt;span style=&quot;white-space: pre;&quot;&gt;&#9;&lt;/span&gt;&lt;span style=&quot;white-space: pre;&quot;&gt;&#9;&lt;/span&gt;&lt;span style=&quot;white-space: pre;&quot;&gt;&#9;&lt;/span&gt;&lt;span style=&quot;white-space: pre;&quot;&gt;&#9;&lt;/span&gt;Информация&lt;/font&gt;&lt;/b&gt;&lt;/span&gt;&lt;/div&gt;&lt;/blockquote&gt;&lt;/blockquote&gt;" style="html=1;shadow=0;dashed=0;shape=mxgraph.bootstrap.rrect;rSize=5;strokeColor=#666666;html=1;whiteSpace=wrap;fillColor=#f5f5f5;verticalAlign=bottom;align=left;spacing=20;spacingBottom=0;fontSize=14;gradientColor=#404040;gradientDirection=west;" parent="1" vertex="1">
                    <mxGeometry x="3308" y="15" width="810" height="540" as="geometry"/>
                </mxCell>
                <mxCell id="231" value="&lt;span style=&quot;font-size: 20px;&quot;&gt;&lt;b&gt;Виртуальный офис&lt;/b&gt;&lt;/span&gt;" style="html=1;shadow=0;dashed=0;shape=mxgraph.bootstrap.topButton;rSize=5;perimeter=none;whiteSpace=wrap;fillColor=#f5f5f5;strokeColor=#666666;resizeWidth=1;fontSize=18;align=center;spacing=20;gradientColor=#FF99FF;fontColor=#000000;gradientDirection=east;" parent="230" vertex="1">
                    <mxGeometry width="810" height="50" relative="1" as="geometry"/>
                </mxCell>
                <mxCell id="232" value="&lt;span style=&quot;font-size: 20px;&quot;&gt;&lt;u style=&quot;&quot;&gt;&lt;font color=&quot;#ff66ff&quot;&gt;Личные данные&lt;/font&gt;&lt;br&gt;&lt;br&gt;&lt;/u&gt;&lt;/span&gt;&lt;u&gt;&lt;font color=&quot;#ff66ff&quot;&gt;Документы&lt;/font&gt;&lt;/u&gt;&lt;span style=&quot;font-size: 20px;&quot;&gt;&lt;u style=&quot;&quot;&gt;&lt;br&gt;&lt;br&gt;&lt;font color=&quot;#ffffff&quot;&gt;&lt;b&gt;&lt;i&gt;Собственность&lt;/i&gt;&lt;/b&gt;&lt;/font&gt;&lt;br&gt;&lt;/u&gt;&lt;/span&gt;&lt;u&gt;&lt;br&gt;&lt;/u&gt;&lt;u&gt;&lt;font color=&quot;#ff66ff&quot;&gt;Образование&lt;/font&gt;&lt;/u&gt;&lt;u&gt;&lt;br&gt;&lt;br&gt;&lt;/u&gt;&lt;span style=&quot;font-size: 20px;&quot;&gt;&lt;u style=&quot;&quot;&gt;&lt;font color=&quot;#ff66ff&quot;&gt;Планировщик&lt;/font&gt;&lt;br&gt;&lt;br&gt;&lt;font color=&quot;#ff66ff&quot;&gt;Контакты&lt;/font&gt;&lt;br&gt;&lt;br&gt;&lt;font color=&quot;#ff66ff&quot;&gt;История местоположений&lt;/font&gt;&lt;/u&gt;&lt;br&gt;&lt;/span&gt;&lt;span style=&quot;color: rgb(255, 102, 255); font-family: monospace; font-size: 0px; text-align: start;&quot;&gt;%3CmxGraphModel%3E%3Croot%3E%3CmxCell%20id%3D%220%22%2F%3E%3CmxCell%20id%3D%221%22%20parent%3D%220%22%2F%3E%3CmxCell%20id%3D%222%22%20value%3D%22%26lt%3Bp%20style%3D%26quot%3Bfont-size%3A%2012px%3B%26quot%3B%26gt%3B%26lt%3Bspan%20style%3D%26quot%3Bbackground-color%3A%20initial%3B%26quot%3B%26gt%3B%26lt%3Bb%26gt%3B1.%20%D0%94%D0%B0%D0%BD%D0%BD%D1%8B%D0%B5%20%D0%BF%D0%BE%D0%BB%D1%8C%D0%B7%D0%BE%D0%B2%D0%B0%D1%82%D0%B5%D0%BB%D1%8F%3A%26lt%3B%2Fb%26gt%3B%26lt%3B%2Fspan%26gt%3B%26lt%3B%2Fp%26gt%3B%22%20style%3D%22html%3D1%3Bshadow%3D0%3Bdashed%3D0%3Bshape%3Dmxgraph.bootstrap.rrect%3BrSize%3D5%3BstrokeColor%3D%231CA5B8%3BstrokeWidth%3D1%3BfillColor%3D%23FFFF33%3BfontColor%3D%23000000%3BwhiteSpace%3Dwrap%3Balign%3Dcenter%3BverticalAlign%3Dmiddle%3BspacingLeft%3D0%3BfontStyle%3D0%3BfontSize%3D12%3Bspacing%3D5%3BlabelPosition%3Dcenter%3BverticalLabelPosition%3Dmiddle%3B%22%20vertex%3D%221%22%20parent%3D%221%22%3E%3CmxGeometry%20x%3D%22570%22%20y%3D%22-630%22%20width%3D%22160%22%20height%3D%2230%22%20as%3D%22geometry%22%2F%3E%3C%2FmxCell%3E%3CmxCell%20id%3D%223%22%20value%3D%22%26lt%3Bp%20style%3D%26quot%3B%26quot%3B%26gt%3B2.%20%D0%94%D0%BE%D0%BA%D1%83%D0%BC%D0%B5%D0%BD%D1%82%D1%8B%26lt%3B%2Fp%26gt%3B%22%20style%3D%22html%3D1%3Bshadow%3D0%3Bdashed%3D0%3Bshape%3Dmxgraph.bootstrap.rrect%3BrSize%3D5%3BstrokeColor%3D%231CA5B8%3BstrokeWidth%3D1%3BfillColor%3D%23FFFF33%3BfontColor%3D%23000000%3BwhiteSpace%3Dwrap%3Balign%3Dcenter%3BverticalAlign%3Dmiddle%3BspacingLeft%3D0%3BfontStyle%3D1%3BfontSize%3D12%3Bspacing%3D5%3BlabelPosition%3Dcenter%3BverticalLabelPosition%3Dmiddle%3B%22%20vertex%3D%221%22%20parent%3D%221%22%3E%3CmxGeometry%20x%3D%22570%22%20y%3D%22-600%22%20width%3D%22160%22%20height%3D%2230%22%20as%3D%22geometry%22%2F%3E%3C%2FmxCell%3E%3CmxCell%20id%3D%224%22%20value%3D%22%26lt%3Bdiv%20style%3D%26quot%3B%26quot%3B%26gt%3B%26lt%3Bspan%20style%3D%26quot%3Bbackground-color%3A%20initial%3B%26quot%3B%26gt%3B3.%20%D0%A1%D0%BE%D0%B1%D1%81%D1%82%D0%B2%D0%B5%D0%BD%D0%BD%D0%BE%D1%81%D1%82%D1%8C%26lt%3B%2Fspan%26gt%3B%26lt%3B%2Fdiv%26gt%3B%22%20style%3D%22html%3D1%3Bshadow%3D0%3Bdashed%3D0%3Bshape%3Dmxgraph.bootstrap.rrect%3BrSize%3D5%3BstrokeColor%3D%231CA5B8%3BstrokeWidth%3D1%3BfillColor%3D%23FFFF33%3BfontColor%3D%23000000%3BwhiteSpace%3Dwrap%3Balign%3Dcenter%3BverticalAlign%3Dmiddle%3BspacingLeft%3D0%3BfontStyle%3D1%3BfontSize%3D12%3Bspacing%3D5%3BlabelPosition%3Dcenter%3BverticalLabelPosition%3Dmiddle%3B%22%20vertex%3D%221%22%20parent%3D%221%22%3E%3CmxGeometry%20x%3D%22570%22%20y%3D%22-570%22%20width%3D%22160%22%20height%3D%2230%22%20as%3D%22geometry%22%2F%3E%3C%2FmxCell%3E%3CmxCell%20id%3D%225%22%20value%3D%22%26lt%3Bdiv%20style%3D%26quot%3B%26quot%3B%26gt%3B%26lt%3Bspan%20style%3D%26quot%3Bbackground-color%3A%20initial%3B%26quot%3B%26gt%3B4.%20%D0%9E%D0%B1%D1%80%D0%B0%D0%B7%D0%BE%D0%B2%D0%B0%D0%BD%D0%B8%D0%B5%26lt%3B%2Fspan%26gt%3B%26lt%3B%2Fdiv%26gt%3B%22%20style%3D%22html%3D1%3Bshadow%3D0%3Bdashed%3D0%3Bshape%3Dmxgraph.bootstrap.rrect%3BrSize%3D5%3BstrokeColor%3D%231CA5B8%3BstrokeWidth%3D1%3BfillColor%3D%23FFFF33%3BfontColor%3D%23000000%3BwhiteSpace%3Dwrap%3Balign%3Dcenter%3BverticalAlign%3Dmiddle%3BspacingLeft%3D0%3BfontStyle%3D1%3BfontSize%3D12%3Bspacing%3D5%3BlabelPosition%3Dcenter%3BverticalLabelPosition%3Dmiddle%3B%22%20vertex%3D%221%22%20parent%3D%221%22%3E%3CmxGeometry%20x%3D%22570%22%20y%3D%22-540%22%20width%3D%22160%22%20height%3D%2230%22%20as%3D%22geometry%22%2F%3E%3C%2FmxCell%3E%3CmxCell%20id%3D%226%22%20value%3D%22%26lt%3Bdiv%20style%3D%26quot%3B%26quot%3B%26gt%3B%26lt%3Bspan%20style%3D%26quot%3Bbackground-color%3A%20initial%3B%26quot%3B%26gt%3B5.%20%D0%9F%D0%BB%D0%B0%D0%BD%D0%B8%D1%80%D0%BE%D0%B2%D1%89%D0%B8%D0%BA%26lt%3B%2Fspan%26gt%3B%26lt%3B%2Fdiv%26gt%3B%22%20style%3D%22html%3D1%3Bshadow%3D0%3Bdashed%3D0%3Bshape%3Dmxgraph.bootstrap.rrect%3BrSize%3D5%3BstrokeColor%3D%231CA5B8%3BstrokeWidth%3D1%3BfillColor%3D%23FFFF33%3BfontColor%3D%23000000%3BwhiteSpace%3Dwrap%3Balign%3Dcenter%3BverticalAlign%3Dmiddle%3BspacingLeft%3D0%3BfontStyle%3D1%3BfontSize%3D12%3Bspacing%3D5%3BlabelPosition%3Dcenter%3BverticalLabelPosition%3Dmiddle%3B%22%20vertex%3D%221%22%20parent%3D%221%22%3E%3CmxGeometry%20x%3D%22570%22%20y%3D%22-510%22%20width%3D%22160%22%20height%3D%2230%22%20as%3D%22geometry%22%2F%3E%3C%2FmxCell%3E%3CmxCell%20id%3D%227%22%20value%3D%22%26lt%3Bdiv%20style%3D%26quot%3B%26quot%3B%26gt%3B%26lt%3Bspan%20style%3D%26quot%3Bbackground-color%3A%20initial%3B%26quot%3B%26gt%3B6.%20%D0%9A%D0%BE%D0%BD%D1%82%D0%B0%D0%BA%D1%82%D1%8B%26lt%3B%2Fspan%26gt%3B%26lt%3B%2Fdiv%26gt%3B%22%20style%3D%22html%3D1%3Bshadow%3D0%3Bdashed%3D0%3Bshape%3Dmxgraph.bootstrap.rrect%3BrSize%3D5%3BstrokeColor%3D%231CA5B8%3BstrokeWidth%3D1%3BfillColor%3D%23FFFF33%3BfontColor%3D%23000000%3BwhiteSpace%3Dwrap%3Balign%3Dcenter%3BverticalAlign%3Dmiddle%3BspacingLeft%3D0%3BfontStyle%3D1%3BfontSize%3D12%3Bspacing%3D5%3BlabelPosition%3Dcenter%3BverticalLabelPosition%3Dmiddle%3B%22%20vertex%3D%221%22%20parent%3D%221%22%3E%3CmxGeometry%20x%3D%22570%22%20y%3D%22-480%22%20width%3D%22160%22%20height%3D%2230%22%20as%3D%22geometry%22%2F%3E%3C%2FmxCell%3E%3CmxCell%20id%3D%228%22%20value%3D%22%26lt%3Bdiv%20style%3D%26quot%3B%26quot%3B%26gt%3B%26lt%3Bspan%20style%3D%26quot%3Bbackground-color%3A%20initial%3B%26quot%3B%26gt%3B7.%20%D0%98%D1%81%D1%82%D0%BE%D1%80%D0%B8%D1%8F%20%D0%BC%D0%B5%D1%81%D1%82%D0%BE%D0%BF%D0%BE%D0%BB%D0%BE%D0%B6%D0%B5%D0%BD%D0%B8%D0%B9%26lt%3B%2Fspan%26gt%3B%26lt%3B%2Fdiv%26gt%3B%22%20style%3D%22html%3D1%3Bshadow%3D0%3Bdashed%3D0%3Bshape%3Dmxgraph.bootstrap.rrect%3BrSize%3D5%3BstrokeColor%3D%231CA5B8%3BstrokeWidth%3D1%3BfillColor%3D%23FFFF33%3BfontColor%3D%23000000%3BwhiteSpace%3Dwrap%3Balign%3Dcenter%3BverticalAlign%3Dmiddle%3BspacingLeft%3D0%3BfontStyle%3D1%3BfontSize%3D12%3Bspacing%3D5%3BlabelPosition%3Dcenter%3BverticalLabelPosition%3Dmiddle%3B%22%20vertex%3D%221%22%20parent%3D%221%22%3E%3CmxGeometry%20x%3D%22570%22%20y%3D%22-450%22%20width%3D%22160%22%20height%3D%2240%22%20as%3D%22geometry%22%2F%3E%3C%2FmxCell%3E%3C%2Froot%3E%3C%2FmxGraphModel%3EЛтиьбю&lt;/span&gt;&lt;u style=&quot;font-size: 20px;&quot;&gt;&lt;b&gt;&lt;br&gt;&lt;/b&gt;&lt;/u&gt;" style="html=1;shadow=0;dashed=0;shape=mxgraph.bootstrap.rrect;rSize=5;strokeColor=#666666;strokeWidth=1;fillColor=none;whiteSpace=wrap;align=center;verticalAlign=middle;spacingLeft=0;fontStyle=0;fontSize=20;spacing=5;gradientColor=#b3b3b3;fontColor=#000000;" parent="230" vertex="1">
                    <mxGeometry y="50" width="254" height="400" as="geometry"/>
                </mxCell>
                <mxCell id="233" value="Обновить данные через Госуслуги" style="html=1;shadow=0;dashed=0;shape=mxgraph.bootstrap.rrect;rSize=5;fillColor=#952499;strokeColor=none;align=center;fontSize=16;fontColor=#FFFFFF;" parent="230" vertex="1">
                    <mxGeometry width="280" height="40" relative="1" as="geometry">
                        <mxPoint x="274" y="485" as="offset"/>
                    </mxGeometry>
                </mxCell>
                <mxCell id="234" value="&lt;div style=&quot;text-align: left;&quot;&gt;&lt;span style=&quot;background-color: initial;&quot;&gt;&lt;b style=&quot;&quot;&gt;&lt;font style=&quot;&quot; color=&quot;#660066&quot;&gt;&amp;nbsp;&lt;u&gt;Недвижимость&lt;/u&gt;&lt;/font&gt;&lt;/b&gt;&lt;/span&gt;&lt;/div&gt;&lt;div style=&quot;text-align: left;&quot;&gt;&lt;span style=&quot;background-color: initial;&quot;&gt;&lt;b style=&quot;&quot;&gt;&lt;font style=&quot;&quot; color=&quot;#660066&quot;&gt;&lt;br&gt;&lt;/font&gt;&lt;/b&gt;&lt;/span&gt;&lt;/div&gt;&lt;div style=&quot;text-align: left;&quot;&gt;&lt;u style=&quot;background-color: initial;&quot;&gt;&lt;b&gt;&lt;font color=&quot;#660066&quot;&gt;Транспортные средства&lt;/font&gt;&lt;/b&gt;&lt;/u&gt;&lt;/div&gt;" style="html=1;shadow=0;dashed=0;shape=mxgraph.bootstrap.rrect;rSize=5;strokeColor=#000000;strokeWidth=1;fillColor=none;whiteSpace=wrap;align=center;verticalAlign=middle;spacingLeft=0;fontStyle=0;fontSize=20;spacing=5;gradientColor=#b3b3b3;fontColor=#000000;" parent="230" vertex="1">
                    <mxGeometry x="294.5" y="155" width="275.5" height="125" as="geometry"/>
                </mxCell>
                <mxCell id="235" value="&lt;font color=&quot;#990099&quot; style=&quot;font-size: 24px;&quot;&gt;Иванов Иван Иванович&lt;/font&gt;" style="rounded=1;whiteSpace=wrap;html=1;arcSize=50;strokeColor=none;strokeWidth=1;fillColor=none;fontColor=#000000;whiteSpace=wrap;align=left;verticalAlign=middle;spacingLeft=0;fontStyle=1;fontSize=14;spacing=10;" parent="230" vertex="1">
                    <mxGeometry x="439" y="83" width="361" height="35" as="geometry"/>
                </mxCell>
                <mxCell id="236" value="&lt;blockquote style=&quot;margin: 0 0 0 40px; border: none; padding: 0px;&quot;&gt;&lt;blockquote style=&quot;margin: 0 0 0 40px; border: none; padding: 0px;&quot;&gt;&lt;div style=&quot;text-align: justify;&quot;&gt;&lt;span style=&quot;font-size: 20px;&quot;&gt;&lt;b&gt;&lt;font color=&quot;#990099&quot;&gt;&lt;span style=&quot;white-space: pre;&quot;&gt;&#9;&lt;/span&gt;&lt;span style=&quot;white-space: pre;&quot;&gt;&#9;&lt;/span&gt;&lt;span style=&quot;white-space: pre;&quot;&gt;&#9;&lt;/span&gt;&lt;span style=&quot;white-space: pre;&quot;&gt;&#9;&lt;/span&gt;&lt;span style=&quot;white-space: pre;&quot;&gt;&#9;&lt;/span&gt;&lt;span style=&quot;white-space: pre;&quot;&gt;&#9;&lt;/span&gt;&lt;span style=&quot;white-space: pre;&quot;&gt;&#9;&lt;/span&gt;&lt;span style=&quot;white-space: pre;&quot;&gt;&#9;&lt;/span&gt;&lt;span style=&quot;white-space: pre;&quot;&gt;&#9;&lt;/span&gt;&lt;span style=&quot;white-space: pre;&quot;&gt;&#9;&lt;/span&gt;&lt;span style=&quot;white-space: pre;&quot;&gt;&#9;&lt;/span&gt;&lt;span style=&quot;white-space: pre;&quot;&gt;&#9;&lt;/span&gt;Информация&lt;/font&gt;&lt;/b&gt;&lt;/span&gt;&lt;/div&gt;&lt;/blockquote&gt;&lt;/blockquote&gt;" style="html=1;shadow=0;dashed=0;shape=mxgraph.bootstrap.rrect;rSize=5;strokeColor=#666666;html=1;whiteSpace=wrap;fillColor=#f5f5f5;verticalAlign=bottom;align=left;spacing=20;spacingBottom=0;fontSize=14;gradientColor=#404040;gradientDirection=west;" parent="1" vertex="1">
                    <mxGeometry x="3308" y="580" width="810" height="540" as="geometry"/>
                </mxCell>
                <mxCell id="237" value="&lt;span style=&quot;font-size: 20px;&quot;&gt;&lt;b&gt;Виртуальный офис&lt;/b&gt;&lt;/span&gt;" style="html=1;shadow=0;dashed=0;shape=mxgraph.bootstrap.topButton;rSize=5;perimeter=none;whiteSpace=wrap;fillColor=#f5f5f5;strokeColor=#666666;resizeWidth=1;fontSize=18;align=center;spacing=20;gradientColor=#FF99FF;fontColor=#000000;gradientDirection=east;" parent="236" vertex="1">
                    <mxGeometry width="810" height="50" relative="1" as="geometry"/>
                </mxCell>
                <mxCell id="238" value="&lt;span style=&quot;font-size: 20px;&quot;&gt;&lt;u style=&quot;&quot;&gt;&lt;font color=&quot;#ff66ff&quot;&gt;Личные данные&lt;/font&gt;&lt;br&gt;&lt;br&gt;&lt;/u&gt;&lt;/span&gt;&lt;u&gt;&lt;font color=&quot;#ff66ff&quot;&gt;Документы&lt;/font&gt;&lt;/u&gt;&lt;span style=&quot;font-size: 20px;&quot;&gt;&lt;u style=&quot;&quot;&gt;&lt;br&gt;&lt;br&gt;&lt;font color=&quot;#ffffff&quot;&gt;&lt;b&gt;&lt;i&gt;Собственность&lt;/i&gt;&lt;/b&gt;&lt;/font&gt;&lt;br&gt;&lt;/u&gt;&lt;/span&gt;&lt;u&gt;&lt;br&gt;&lt;/u&gt;&lt;u&gt;&lt;font color=&quot;#ff66ff&quot;&gt;Образование&lt;/font&gt;&lt;/u&gt;&lt;u&gt;&lt;br&gt;&lt;br&gt;&lt;/u&gt;&lt;span style=&quot;font-size: 20px;&quot;&gt;&lt;u style=&quot;&quot;&gt;&lt;font color=&quot;#ff66ff&quot;&gt;Планировщик&lt;/font&gt;&lt;br&gt;&lt;br&gt;&lt;font color=&quot;#ff66ff&quot;&gt;Контакты&lt;/font&gt;&lt;br&gt;&lt;br&gt;&lt;font color=&quot;#ff66ff&quot;&gt;История местоположений&lt;/font&gt;&lt;/u&gt;&lt;br&gt;&lt;/span&gt;&lt;span style=&quot;color: rgb(255, 102, 255); font-family: monospace; font-size: 0px; text-align: start;&quot;&gt;%3CmxGraphModel%3E%3Croot%3E%3CmxCell%20id%3D%220%22%2F%3E%3CmxCell%20id%3D%221%22%20parent%3D%220%22%2F%3E%3CmxCell%20id%3D%222%22%20value%3D%22%26lt%3Bp%20style%3D%26quot%3Bfont-size%3A%2012px%3B%26quot%3B%26gt%3B%26lt%3Bspan%20style%3D%26quot%3Bbackground-color%3A%20initial%3B%26quot%3B%26gt%3B%26lt%3Bb%26gt%3B1.%20%D0%94%D0%B0%D0%BD%D0%BD%D1%8B%D0%B5%20%D0%BF%D0%BE%D0%BB%D1%8C%D0%B7%D0%BE%D0%B2%D0%B0%D1%82%D0%B5%D0%BB%D1%8F%3A%26lt%3B%2Fb%26gt%3B%26lt%3B%2Fspan%26gt%3B%26lt%3B%2Fp%26gt%3B%22%20style%3D%22html%3D1%3Bshadow%3D0%3Bdashed%3D0%3Bshape%3Dmxgraph.bootstrap.rrect%3BrSize%3D5%3BstrokeColor%3D%231CA5B8%3BstrokeWidth%3D1%3BfillColor%3D%23FFFF33%3BfontColor%3D%23000000%3BwhiteSpace%3Dwrap%3Balign%3Dcenter%3BverticalAlign%3Dmiddle%3BspacingLeft%3D0%3BfontStyle%3D0%3BfontSize%3D12%3Bspacing%3D5%3BlabelPosition%3Dcenter%3BverticalLabelPosition%3Dmiddle%3B%22%20vertex%3D%221%22%20parent%3D%221%22%3E%3CmxGeometry%20x%3D%22570%22%20y%3D%22-630%22%20width%3D%22160%22%20height%3D%2230%22%20as%3D%22geometry%22%2F%3E%3C%2FmxCell%3E%3CmxCell%20id%3D%223%22%20value%3D%22%26lt%3Bp%20style%3D%26quot%3B%26quot%3B%26gt%3B2.%20%D0%94%D0%BE%D0%BA%D1%83%D0%BC%D0%B5%D0%BD%D1%82%D1%8B%26lt%3B%2Fp%26gt%3B%22%20style%3D%22html%3D1%3Bshadow%3D0%3Bdashed%3D0%3Bshape%3Dmxgraph.bootstrap.rrect%3BrSize%3D5%3BstrokeColor%3D%231CA5B8%3BstrokeWidth%3D1%3BfillColor%3D%23FFFF33%3BfontColor%3D%23000000%3BwhiteSpace%3Dwrap%3Balign%3Dcenter%3BverticalAlign%3Dmiddle%3BspacingLeft%3D0%3BfontStyle%3D1%3BfontSize%3D12%3Bspacing%3D5%3BlabelPosition%3Dcenter%3BverticalLabelPosition%3Dmiddle%3B%22%20vertex%3D%221%22%20parent%3D%221%22%3E%3CmxGeometry%20x%3D%22570%22%20y%3D%22-600%22%20width%3D%22160%22%20height%3D%2230%22%20as%3D%22geometry%22%2F%3E%3C%2FmxCell%3E%3CmxCell%20id%3D%224%22%20value%3D%22%26lt%3Bdiv%20style%3D%26quot%3B%26quot%3B%26gt%3B%26lt%3Bspan%20style%3D%26quot%3Bbackground-color%3A%20initial%3B%26quot%3B%26gt%3B3.%20%D0%A1%D0%BE%D0%B1%D1%81%D1%82%D0%B2%D0%B5%D0%BD%D0%BD%D0%BE%D1%81%D1%82%D1%8C%26lt%3B%2Fspan%26gt%3B%26lt%3B%2Fdiv%26gt%3B%22%20style%3D%22html%3D1%3Bshadow%3D0%3Bdashed%3D0%3Bshape%3Dmxgraph.bootstrap.rrect%3BrSize%3D5%3BstrokeColor%3D%231CA5B8%3BstrokeWidth%3D1%3BfillColor%3D%23FFFF33%3BfontColor%3D%23000000%3BwhiteSpace%3Dwrap%3Balign%3Dcenter%3BverticalAlign%3Dmiddle%3BspacingLeft%3D0%3BfontStyle%3D1%3BfontSize%3D12%3Bspacing%3D5%3BlabelPosition%3Dcenter%3BverticalLabelPosition%3Dmiddle%3B%22%20vertex%3D%221%22%20parent%3D%221%22%3E%3CmxGeometry%20x%3D%22570%22%20y%3D%22-570%22%20width%3D%22160%22%20height%3D%2230%22%20as%3D%22geometry%22%2F%3E%3C%2FmxCell%3E%3CmxCell%20id%3D%225%22%20value%3D%22%26lt%3Bdiv%20style%3D%26quot%3B%26quot%3B%26gt%3B%26lt%3Bspan%20style%3D%26quot%3Bbackground-color%3A%20initial%3B%26quot%3B%26gt%3B4.%20%D0%9E%D0%B1%D1%80%D0%B0%D0%B7%D0%BE%D0%B2%D0%B0%D0%BD%D0%B8%D0%B5%26lt%3B%2Fspan%26gt%3B%26lt%3B%2Fdiv%26gt%3B%22%20style%3D%22html%3D1%3Bshadow%3D0%3Bdashed%3D0%3Bshape%3Dmxgraph.bootstrap.rrect%3BrSize%3D5%3BstrokeColor%3D%231CA5B8%3BstrokeWidth%3D1%3BfillColor%3D%23FFFF33%3BfontColor%3D%23000000%3BwhiteSpace%3Dwrap%3Balign%3Dcenter%3BverticalAlign%3Dmiddle%3BspacingLeft%3D0%3BfontStyle%3D1%3BfontSize%3D12%3Bspacing%3D5%3BlabelPosition%3Dcenter%3BverticalLabelPosition%3Dmiddle%3B%22%20vertex%3D%221%22%20parent%3D%221%22%3E%3CmxGeometry%20x%3D%22570%22%20y%3D%22-540%22%20width%3D%22160%22%20height%3D%2230%22%20as%3D%22geometry%22%2F%3E%3C%2FmxCell%3E%3CmxCell%20id%3D%226%22%20value%3D%22%26lt%3Bdiv%20style%3D%26quot%3B%26quot%3B%26gt%3B%26lt%3Bspan%20style%3D%26quot%3Bbackground-color%3A%20initial%3B%26quot%3B%26gt%3B5.%20%D0%9F%D0%BB%D0%B0%D0%BD%D0%B8%D1%80%D0%BE%D0%B2%D1%89%D0%B8%D0%BA%26lt%3B%2Fspan%26gt%3B%26lt%3B%2Fdiv%26gt%3B%22%20style%3D%22html%3D1%3Bshadow%3D0%3Bdashed%3D0%3Bshape%3Dmxgraph.bootstrap.rrect%3BrSize%3D5%3BstrokeColor%3D%231CA5B8%3BstrokeWidth%3D1%3BfillColor%3D%23FFFF33%3BfontColor%3D%23000000%3BwhiteSpace%3Dwrap%3Balign%3Dcenter%3BverticalAlign%3Dmiddle%3BspacingLeft%3D0%3BfontStyle%3D1%3BfontSize%3D12%3Bspacing%3D5%3BlabelPosition%3Dcenter%3BverticalLabelPosition%3Dmiddle%3B%22%20vertex%3D%221%22%20parent%3D%221%22%3E%3CmxGeometry%20x%3D%22570%22%20y%3D%22-510%22%20width%3D%22160%22%20height%3D%2230%22%20as%3D%22geometry%22%2F%3E%3C%2FmxCell%3E%3CmxCell%20id%3D%227%22%20value%3D%22%26lt%3Bdiv%20style%3D%26quot%3B%26quot%3B%26gt%3B%26lt%3Bspan%20style%3D%26quot%3Bbackground-color%3A%20initial%3B%26quot%3B%26gt%3B6.%20%D0%9A%D0%BE%D0%BD%D1%82%D0%B0%D0%BA%D1%82%D1%8B%26lt%3B%2Fspan%26gt%3B%26lt%3B%2Fdiv%26gt%3B%22%20style%3D%22html%3D1%3Bshadow%3D0%3Bdashed%3D0%3Bshape%3Dmxgraph.bootstrap.rrect%3BrSize%3D5%3BstrokeColor%3D%231CA5B8%3BstrokeWidth%3D1%3BfillColor%3D%23FFFF33%3BfontColor%3D%23000000%3BwhiteSpace%3Dwrap%3Balign%3Dcenter%3BverticalAlign%3Dmiddle%3BspacingLeft%3D0%3BfontStyle%3D1%3BfontSize%3D12%3Bspacing%3D5%3BlabelPosition%3Dcenter%3BverticalLabelPosition%3Dmiddle%3B%22%20vertex%3D%221%22%20parent%3D%221%22%3E%3CmxGeometry%20x%3D%22570%22%20y%3D%22-480%22%20width%3D%22160%22%20height%3D%2230%22%20as%3D%22geometry%22%2F%3E%3C%2FmxCell%3E%3CmxCell%20id%3D%228%22%20value%3D%22%26lt%3Bdiv%20style%3D%26quot%3B%26quot%3B%26gt%3B%26lt%3Bspan%20style%3D%26quot%3Bbackground-color%3A%20initial%3B%26quot%3B%26gt%3B7.%20%D0%98%D1%81%D1%82%D0%BE%D1%80%D0%B8%D1%8F%20%D0%BC%D0%B5%D1%81%D1%82%D0%BE%D0%BF%D0%BE%D0%BB%D0%BE%D0%B6%D0%B5%D0%BD%D0%B8%D0%B9%26lt%3B%2Fspan%26gt%3B%26lt%3B%2Fdiv%26gt%3B%22%20style%3D%22html%3D1%3Bshadow%3D0%3Bdashed%3D0%3Bshape%3Dmxgraph.bootstrap.rrect%3BrSize%3D5%3BstrokeColor%3D%231CA5B8%3BstrokeWidth%3D1%3BfillColor%3D%23FFFF33%3BfontColor%3D%23000000%3BwhiteSpace%3Dwrap%3Balign%3Dcenter%3BverticalAlign%3Dmiddle%3BspacingLeft%3D0%3BfontStyle%3D1%3BfontSize%3D12%3Bspacing%3D5%3BlabelPosition%3Dcenter%3BverticalLabelPosition%3Dmiddle%3B%22%20vertex%3D%221%22%20parent%3D%221%22%3E%3CmxGeometry%20x%3D%22570%22%20y%3D%22-450%22%20width%3D%22160%22%20height%3D%2240%22%20as%3D%22geometry%22%2F%3E%3C%2FmxCell%3E%3C%2Froot%3E%3C%2FmxGraphModel%3EЛтиьбю&lt;/span&gt;&lt;u style=&quot;font-size: 20px;&quot;&gt;&lt;b&gt;&lt;br&gt;&lt;/b&gt;&lt;/u&gt;" style="html=1;shadow=0;dashed=0;shape=mxgraph.bootstrap.rrect;rSize=5;strokeColor=#666666;strokeWidth=1;fillColor=none;whiteSpace=wrap;align=center;verticalAlign=middle;spacingLeft=0;fontStyle=0;fontSize=20;spacing=5;gradientColor=#b3b3b3;fontColor=#000000;" parent="236" vertex="1">
                    <mxGeometry y="50" width="254" height="400" as="geometry"/>
                </mxCell>
                <mxCell id="239" value="Обновить данные через Госуслуги" style="html=1;shadow=0;dashed=0;shape=mxgraph.bootstrap.rrect;rSize=5;fillColor=#952499;strokeColor=none;align=center;fontSize=16;fontColor=#FFFFFF;" parent="236" vertex="1">
                    <mxGeometry width="280" height="40" relative="1" as="geometry">
                        <mxPoint x="274" y="485" as="offset"/>
                    </mxGeometry>
                </mxCell>
                <mxCell id="241" value="&lt;font color=&quot;#990099&quot;&gt;&lt;span style=&quot;font-size: 24px;&quot;&gt;Недвижимость&lt;/span&gt;&lt;/font&gt;" style="rounded=1;whiteSpace=wrap;html=1;arcSize=50;strokeColor=none;strokeWidth=1;fillColor=none;fontColor=#000000;whiteSpace=wrap;align=left;verticalAlign=middle;spacingLeft=0;fontStyle=1;fontSize=14;spacing=10;" parent="236" vertex="1">
                    <mxGeometry x="542" y="83" width="231" height="35" as="geometry"/>
                </mxCell>
                <mxCell id="240" value="&lt;div style=&quot;text-align: left;&quot;&gt;&lt;font color=&quot;#660066&quot;&gt;&lt;u&gt;&lt;b&gt;Квартира 1&lt;/b&gt;&lt;/u&gt;&lt;/font&gt;&lt;/div&gt;&lt;div style=&quot;text-align: left;&quot;&gt;&lt;font color=&quot;#660066&quot;&gt;&lt;u&gt;&lt;b&gt;&lt;br&gt;&lt;/b&gt;&lt;/u&gt;&lt;/font&gt;&lt;/div&gt;&lt;div style=&quot;text-align: left;&quot;&gt;&lt;font color=&quot;#660066&quot;&gt;&lt;u&gt;&lt;b&gt;Квартира 2&lt;/b&gt;&lt;/u&gt;&lt;/font&gt;&lt;/div&gt;&lt;div style=&quot;text-align: left;&quot;&gt;&lt;font color=&quot;#660066&quot;&gt;&lt;u&gt;&lt;b&gt;&lt;br&gt;&lt;/b&gt;&lt;/u&gt;&lt;/font&gt;&lt;/div&gt;&lt;div style=&quot;text-align: left;&quot;&gt;&lt;font color=&quot;#660066&quot;&gt;&lt;u&gt;&lt;b&gt;Земельный участок&lt;/b&gt;&lt;/u&gt;&lt;/font&gt;&lt;/div&gt;&lt;div style=&quot;text-align: left;&quot;&gt;&lt;font color=&quot;#660066&quot;&gt;&lt;u&gt;&lt;b&gt;&lt;br&gt;&lt;/b&gt;&lt;/u&gt;&lt;/font&gt;&lt;/div&gt;&lt;div style=&quot;text-align: left;&quot;&gt;&lt;font color=&quot;#660066&quot;&gt;&lt;u&gt;&lt;b&gt;Гараж&lt;/b&gt;&lt;/u&gt;&lt;/font&gt;&lt;/div&gt;" style="html=1;shadow=0;dashed=0;shape=mxgraph.bootstrap.rrect;rSize=5;strokeColor=#000000;strokeWidth=1;fillColor=none;whiteSpace=wrap;align=center;verticalAlign=middle;spacingLeft=0;fontStyle=0;fontSize=20;spacing=5;gradientColor=#b3b3b3;fontColor=#000000;" parent="1" vertex="1">
                    <mxGeometry x="3602.5" y="717" width="257.5" height="243" as="geometry"/>
                </mxCell>
                <mxCell id="242" value="&lt;blockquote style=&quot;margin: 0 0 0 40px; border: none; padding: 0px;&quot;&gt;&lt;blockquote style=&quot;margin: 0 0 0 40px; border: none; padding: 0px;&quot;&gt;&lt;div style=&quot;text-align: justify;&quot;&gt;&lt;span style=&quot;font-size: 20px;&quot;&gt;&lt;b&gt;&lt;font color=&quot;#990099&quot;&gt;&lt;span style=&quot;white-space: pre;&quot;&gt;&#9;&lt;/span&gt;&lt;span style=&quot;white-space: pre;&quot;&gt;&#9;&lt;/span&gt;&lt;span style=&quot;white-space: pre;&quot;&gt;&#9;&lt;/span&gt;&lt;span style=&quot;white-space: pre;&quot;&gt;&#9;&lt;/span&gt;&lt;span style=&quot;white-space: pre;&quot;&gt;&#9;&lt;/span&gt;&lt;span style=&quot;white-space: pre;&quot;&gt;&#9;&lt;/span&gt;&lt;span style=&quot;white-space: pre;&quot;&gt;&#9;&lt;/span&gt;&lt;span style=&quot;white-space: pre;&quot;&gt;&#9;&lt;/span&gt;&lt;span style=&quot;white-space: pre;&quot;&gt;&#9;&lt;/span&gt;&lt;span style=&quot;white-space: pre;&quot;&gt;&#9;&lt;/span&gt;&lt;span style=&quot;white-space: pre;&quot;&gt;&#9;&lt;/span&gt;&lt;span style=&quot;white-space: pre;&quot;&gt;&#9;&lt;/span&gt;Информация&lt;/font&gt;&lt;/b&gt;&lt;/span&gt;&lt;/div&gt;&lt;/blockquote&gt;&lt;/blockquote&gt;" style="html=1;shadow=0;dashed=0;shape=mxgraph.bootstrap.rrect;rSize=5;strokeColor=#666666;html=1;whiteSpace=wrap;fillColor=#f5f5f5;verticalAlign=bottom;align=left;spacing=20;spacingBottom=0;fontSize=14;gradientColor=#404040;gradientDirection=west;" parent="1" vertex="1">
                    <mxGeometry x="3308" y="1169" width="810" height="540" as="geometry"/>
                </mxCell>
                <mxCell id="243" value="&lt;span style=&quot;font-size: 20px;&quot;&gt;&lt;b&gt;Виртуальный офис&lt;/b&gt;&lt;/span&gt;" style="html=1;shadow=0;dashed=0;shape=mxgraph.bootstrap.topButton;rSize=5;perimeter=none;whiteSpace=wrap;fillColor=#f5f5f5;strokeColor=#666666;resizeWidth=1;fontSize=18;align=center;spacing=20;gradientColor=#FF99FF;fontColor=#000000;gradientDirection=east;" parent="242" vertex="1">
                    <mxGeometry width="810" height="50" relative="1" as="geometry"/>
                </mxCell>
                <mxCell id="244" value="&lt;span style=&quot;font-size: 20px;&quot;&gt;&lt;u style=&quot;&quot;&gt;&lt;font color=&quot;#ff66ff&quot;&gt;Личные данные&lt;/font&gt;&lt;br&gt;&lt;br&gt;&lt;/u&gt;&lt;/span&gt;&lt;u&gt;&lt;font color=&quot;#ff66ff&quot;&gt;Документы&lt;/font&gt;&lt;/u&gt;&lt;span style=&quot;font-size: 20px;&quot;&gt;&lt;u style=&quot;&quot;&gt;&lt;br&gt;&lt;br&gt;&lt;font color=&quot;#ffffff&quot;&gt;&lt;b&gt;&lt;i&gt;Собственность&lt;/i&gt;&lt;/b&gt;&lt;/font&gt;&lt;br&gt;&lt;/u&gt;&lt;/span&gt;&lt;u&gt;&lt;br&gt;&lt;/u&gt;&lt;u&gt;&lt;font color=&quot;#ff66ff&quot;&gt;Образование&lt;/font&gt;&lt;/u&gt;&lt;u&gt;&lt;br&gt;&lt;br&gt;&lt;/u&gt;&lt;span style=&quot;font-size: 20px;&quot;&gt;&lt;u style=&quot;&quot;&gt;&lt;font color=&quot;#ff66ff&quot;&gt;Планировщик&lt;/font&gt;&lt;br&gt;&lt;br&gt;&lt;font color=&quot;#ff66ff&quot;&gt;Контакты&lt;/font&gt;&lt;br&gt;&lt;br&gt;&lt;font color=&quot;#ff66ff&quot;&gt;История местоположений&lt;/font&gt;&lt;/u&gt;&lt;br&gt;&lt;/span&gt;&lt;span style=&quot;color: rgb(255, 102, 255); font-family: monospace; font-size: 0px; text-align: start;&quot;&gt;%3CmxGraphModel%3E%3Croot%3E%3CmxCell%20id%3D%220%22%2F%3E%3CmxCell%20id%3D%221%22%20parent%3D%220%22%2F%3E%3CmxCell%20id%3D%222%22%20value%3D%22%26lt%3Bp%20style%3D%26quot%3Bfont-size%3A%2012px%3B%26quot%3B%26gt%3B%26lt%3Bspan%20style%3D%26quot%3Bbackground-color%3A%20initial%3B%26quot%3B%26gt%3B%26lt%3Bb%26gt%3B1.%20%D0%94%D0%B0%D0%BD%D0%BD%D1%8B%D0%B5%20%D0%BF%D0%BE%D0%BB%D1%8C%D0%B7%D0%BE%D0%B2%D0%B0%D1%82%D0%B5%D0%BB%D1%8F%3A%26lt%3B%2Fb%26gt%3B%26lt%3B%2Fspan%26gt%3B%26lt%3B%2Fp%26gt%3B%22%20style%3D%22html%3D1%3Bshadow%3D0%3Bdashed%3D0%3Bshape%3Dmxgraph.bootstrap.rrect%3BrSize%3D5%3BstrokeColor%3D%231CA5B8%3BstrokeWidth%3D1%3BfillColor%3D%23FFFF33%3BfontColor%3D%23000000%3BwhiteSpace%3Dwrap%3Balign%3Dcenter%3BverticalAlign%3Dmiddle%3BspacingLeft%3D0%3BfontStyle%3D0%3BfontSize%3D12%3Bspacing%3D5%3BlabelPosition%3Dcenter%3BverticalLabelPosition%3Dmiddle%3B%22%20vertex%3D%221%22%20parent%3D%221%22%3E%3CmxGeometry%20x%3D%22570%22%20y%3D%22-630%22%20width%3D%22160%22%20height%3D%2230%22%20as%3D%22geometry%22%2F%3E%3C%2FmxCell%3E%3CmxCell%20id%3D%223%22%20value%3D%22%26lt%3Bp%20style%3D%26quot%3B%26quot%3B%26gt%3B2.%20%D0%94%D0%BE%D0%BA%D1%83%D0%BC%D0%B5%D0%BD%D1%82%D1%8B%26lt%3B%2Fp%26gt%3B%22%20style%3D%22html%3D1%3Bshadow%3D0%3Bdashed%3D0%3Bshape%3Dmxgraph.bootstrap.rrect%3BrSize%3D5%3BstrokeColor%3D%231CA5B8%3BstrokeWidth%3D1%3BfillColor%3D%23FFFF33%3BfontColor%3D%23000000%3BwhiteSpace%3Dwrap%3Balign%3Dcenter%3BverticalAlign%3Dmiddle%3BspacingLeft%3D0%3BfontStyle%3D1%3BfontSize%3D12%3Bspacing%3D5%3BlabelPosition%3Dcenter%3BverticalLabelPosition%3Dmiddle%3B%22%20vertex%3D%221%22%20parent%3D%221%22%3E%3CmxGeometry%20x%3D%22570%22%20y%3D%22-600%22%20width%3D%22160%22%20height%3D%2230%22%20as%3D%22geometry%22%2F%3E%3C%2FmxCell%3E%3CmxCell%20id%3D%224%22%20value%3D%22%26lt%3Bdiv%20style%3D%26quot%3B%26quot%3B%26gt%3B%26lt%3Bspan%20style%3D%26quot%3Bbackground-color%3A%20initial%3B%26quot%3B%26gt%3B3.%20%D0%A1%D0%BE%D0%B1%D1%81%D1%82%D0%B2%D0%B5%D0%BD%D0%BD%D0%BE%D1%81%D1%82%D1%8C%26lt%3B%2Fspan%26gt%3B%26lt%3B%2Fdiv%26gt%3B%22%20style%3D%22html%3D1%3Bshadow%3D0%3Bdashed%3D0%3Bshape%3Dmxgraph.bootstrap.rrect%3BrSize%3D5%3BstrokeColor%3D%231CA5B8%3BstrokeWidth%3D1%3BfillColor%3D%23FFFF33%3BfontColor%3D%23000000%3BwhiteSpace%3Dwrap%3Balign%3Dcenter%3BverticalAlign%3Dmiddle%3BspacingLeft%3D0%3BfontStyle%3D1%3BfontSize%3D12%3Bspacing%3D5%3BlabelPosition%3Dcenter%3BverticalLabelPosition%3Dmiddle%3B%22%20vertex%3D%221%22%20parent%3D%221%22%3E%3CmxGeometry%20x%3D%22570%22%20y%3D%22-570%22%20width%3D%22160%22%20height%3D%2230%22%20as%3D%22geometry%22%2F%3E%3C%2FmxCell%3E%3CmxCell%20id%3D%225%22%20value%3D%22%26lt%3Bdiv%20style%3D%26quot%3B%26quot%3B%26gt%3B%26lt%3Bspan%20style%3D%26quot%3Bbackground-color%3A%20initial%3B%26quot%3B%26gt%3B4.%20%D0%9E%D0%B1%D1%80%D0%B0%D0%B7%D0%BE%D0%B2%D0%B0%D0%BD%D0%B8%D0%B5%26lt%3B%2Fspan%26gt%3B%26lt%3B%2Fdiv%26gt%3B%22%20style%3D%22html%3D1%3Bshadow%3D0%3Bdashed%3D0%3Bshape%3Dmxgraph.bootstrap.rrect%3BrSize%3D5%3BstrokeColor%3D%231CA5B8%3BstrokeWidth%3D1%3BfillColor%3D%23FFFF33%3BfontColor%3D%23000000%3BwhiteSpace%3Dwrap%3Balign%3Dcenter%3BverticalAlign%3Dmiddle%3BspacingLeft%3D0%3BfontStyle%3D1%3BfontSize%3D12%3Bspacing%3D5%3BlabelPosition%3Dcenter%3BverticalLabelPosition%3Dmiddle%3B%22%20vertex%3D%221%22%20parent%3D%221%22%3E%3CmxGeometry%20x%3D%22570%22%20y%3D%22-540%22%20width%3D%22160%22%20height%3D%2230%22%20as%3D%22geometry%22%2F%3E%3C%2FmxCell%3E%3CmxCell%20id%3D%226%22%20value%3D%22%26lt%3Bdiv%20style%3D%26quot%3B%26quot%3B%26gt%3B%26lt%3Bspan%20style%3D%26quot%3Bbackground-color%3A%20initial%3B%26quot%3B%26gt%3B5.%20%D0%9F%D0%BB%D0%B0%D0%BD%D0%B8%D1%80%D0%BE%D0%B2%D1%89%D0%B8%D0%BA%26lt%3B%2Fspan%26gt%3B%26lt%3B%2Fdiv%26gt%3B%22%20style%3D%22html%3D1%3Bshadow%3D0%3Bdashed%3D0%3Bshape%3Dmxgraph.bootstrap.rrect%3BrSize%3D5%3BstrokeColor%3D%231CA5B8%3BstrokeWidth%3D1%3BfillColor%3D%23FFFF33%3BfontColor%3D%23000000%3BwhiteSpace%3Dwrap%3Balign%3Dcenter%3BverticalAlign%3Dmiddle%3BspacingLeft%3D0%3BfontStyle%3D1%3BfontSize%3D12%3Bspacing%3D5%3BlabelPosition%3Dcenter%3BverticalLabelPosition%3Dmiddle%3B%22%20vertex%3D%221%22%20parent%3D%221%22%3E%3CmxGeometry%20x%3D%22570%22%20y%3D%22-510%22%20width%3D%22160%22%20height%3D%2230%22%20as%3D%22geometry%22%2F%3E%3C%2FmxCell%3E%3CmxCell%20id%3D%227%22%20value%3D%22%26lt%3Bdiv%20style%3D%26quot%3B%26quot%3B%26gt%3B%26lt%3Bspan%20style%3D%26quot%3Bbackground-color%3A%20initial%3B%26quot%3B%26gt%3B6.%20%D0%9A%D0%BE%D0%BD%D1%82%D0%B0%D0%BA%D1%82%D1%8B%26lt%3B%2Fspan%26gt%3B%26lt%3B%2Fdiv%26gt%3B%22%20style%3D%22html%3D1%3Bshadow%3D0%3Bdashed%3D0%3Bshape%3Dmxgraph.bootstrap.rrect%3BrSize%3D5%3BstrokeColor%3D%231CA5B8%3BstrokeWidth%3D1%3BfillColor%3D%23FFFF33%3BfontColor%3D%23000000%3BwhiteSpace%3Dwrap%3Balign%3Dcenter%3BverticalAlign%3Dmiddle%3BspacingLeft%3D0%3BfontStyle%3D1%3BfontSize%3D12%3Bspacing%3D5%3BlabelPosition%3Dcenter%3BverticalLabelPosition%3Dmiddle%3B%22%20vertex%3D%221%22%20parent%3D%221%22%3E%3CmxGeometry%20x%3D%22570%22%20y%3D%22-480%22%20width%3D%22160%22%20height%3D%2230%22%20as%3D%22geometry%22%2F%3E%3C%2FmxCell%3E%3CmxCell%20id%3D%228%22%20value%3D%22%26lt%3Bdiv%20style%3D%26quot%3B%26quot%3B%26gt%3B%26lt%3Bspan%20style%3D%26quot%3Bbackground-color%3A%20initial%3B%26quot%3B%26gt%3B7.%20%D0%98%D1%81%D1%82%D0%BE%D1%80%D0%B8%D1%8F%20%D0%BC%D0%B5%D1%81%D1%82%D0%BE%D0%BF%D0%BE%D0%BB%D0%BE%D0%B6%D0%B5%D0%BD%D0%B8%D0%B9%26lt%3B%2Fspan%26gt%3B%26lt%3B%2Fdiv%26gt%3B%22%20style%3D%22html%3D1%3Bshadow%3D0%3Bdashed%3D0%3Bshape%3Dmxgraph.bootstrap.rrect%3BrSize%3D5%3BstrokeColor%3D%231CA5B8%3BstrokeWidth%3D1%3BfillColor%3D%23FFFF33%3BfontColor%3D%23000000%3BwhiteSpace%3Dwrap%3Balign%3Dcenter%3BverticalAlign%3Dmiddle%3BspacingLeft%3D0%3BfontStyle%3D1%3BfontSize%3D12%3Bspacing%3D5%3BlabelPosition%3Dcenter%3BverticalLabelPosition%3Dmiddle%3B%22%20vertex%3D%221%22%20parent%3D%221%22%3E%3CmxGeometry%20x%3D%22570%22%20y%3D%22-450%22%20width%3D%22160%22%20height%3D%2240%22%20as%3D%22geometry%22%2F%3E%3C%2FmxCell%3E%3C%2Froot%3E%3C%2FmxGraphModel%3EЛтиьбю&lt;/span&gt;&lt;u style=&quot;font-size: 20px;&quot;&gt;&lt;b&gt;&lt;br&gt;&lt;/b&gt;&lt;/u&gt;" style="html=1;shadow=0;dashed=0;shape=mxgraph.bootstrap.rrect;rSize=5;strokeColor=#666666;strokeWidth=1;fillColor=none;whiteSpace=wrap;align=center;verticalAlign=middle;spacingLeft=0;fontStyle=0;fontSize=20;spacing=5;gradientColor=#b3b3b3;fontColor=#000000;" parent="242" vertex="1">
                    <mxGeometry y="50" width="254" height="400" as="geometry"/>
                </mxCell>
                <mxCell id="245" value="Обновить данные через Госуслуги" style="html=1;shadow=0;dashed=0;shape=mxgraph.bootstrap.rrect;rSize=5;fillColor=#952499;strokeColor=none;align=center;fontSize=16;fontColor=#FFFFFF;" parent="242" vertex="1">
                    <mxGeometry width="280" height="40" relative="1" as="geometry">
                        <mxPoint x="274" y="485" as="offset"/>
                    </mxGeometry>
                </mxCell>
                <mxCell id="246" value="&lt;font color=&quot;#990099&quot;&gt;&lt;span style=&quot;font-size: 24px;&quot;&gt;Квартира 1&lt;/span&gt;&lt;/font&gt;" style="rounded=1;whiteSpace=wrap;html=1;arcSize=50;strokeColor=none;strokeWidth=1;fillColor=none;fontColor=#000000;whiteSpace=wrap;align=left;verticalAlign=middle;spacingLeft=0;fontStyle=1;fontSize=14;spacing=10;" parent="242" vertex="1">
                    <mxGeometry x="582" y="83" width="198" height="35" as="geometry"/>
                </mxCell>
                <mxCell id="248" value="Изменить данные" style="html=1;shadow=0;dashed=0;shape=mxgraph.bootstrap.rrect;rSize=5;fillColor=#952499;strokeColor=none;align=center;fontSize=16;fontColor=#FFFFFF;" parent="242" vertex="1">
                    <mxGeometry width="180" height="40" relative="1" as="geometry">
                        <mxPoint x="292" y="410" as="offset"/>
                    </mxGeometry>
                </mxCell>
                <mxCell id="249" value="Удалить объект" style="html=1;shadow=0;dashed=0;shape=mxgraph.bootstrap.rrect;rSize=5;fillColor=#952499;strokeColor=none;align=center;fontSize=16;fontColor=#FFFFFF;" parent="242" vertex="1">
                    <mxGeometry width="180" height="40" relative="1" as="geometry">
                        <mxPoint x="532" y="410" as="offset"/>
                    </mxGeometry>
                </mxCell>
                <mxCell id="247" value="&lt;div style=&quot;text-align: left;&quot;&gt;&lt;font color=&quot;#660066&quot;&gt;&lt;u&gt;Тип:&lt;/u&gt;&lt;b&gt; квартира&lt;/b&gt;&lt;/font&gt;&lt;/div&gt;&lt;div style=&quot;text-align: left;&quot;&gt;&lt;font color=&quot;#660066&quot;&gt;&lt;b&gt;&lt;br&gt;&lt;/b&gt;&lt;/font&gt;&lt;/div&gt;&lt;div style=&quot;text-align: left;&quot;&gt;&lt;font color=&quot;#660066&quot;&gt;&lt;u&gt;Адрес:&lt;/u&gt;&lt;b&gt; ................................................&lt;/b&gt;&lt;/font&gt;&lt;/div&gt;&lt;div style=&quot;text-align: left;&quot;&gt;&lt;font color=&quot;#660066&quot;&gt;&lt;b&gt;..............................................................&lt;/b&gt;&lt;/font&gt;&lt;/div&gt;&lt;div style=&quot;text-align: left;&quot;&gt;&lt;font color=&quot;#660066&quot;&gt;&lt;b&gt;&lt;br&gt;&lt;/b&gt;&lt;/font&gt;&lt;/div&gt;&lt;div style=&quot;text-align: left;&quot;&gt;&lt;font color=&quot;#660066&quot;&gt;&lt;u&gt;Площадь:&lt;/u&gt;&lt;b&gt; 100 м2&lt;/b&gt;&lt;/font&gt;&lt;/div&gt;&lt;div style=&quot;text-align: left;&quot;&gt;&lt;font color=&quot;#660066&quot;&gt;&lt;b&gt;&lt;br&gt;&lt;/b&gt;&lt;/font&gt;&lt;/div&gt;&lt;div style=&quot;text-align: left;&quot;&gt;&lt;font color=&quot;#660066&quot;&gt;&lt;u&gt;Кадастровый номер:&lt;/u&gt;&lt;b&gt; 32:10:10000.......&lt;/b&gt;&lt;/font&gt;&lt;/div&gt;&lt;div style=&quot;text-align: left;&quot;&gt;&lt;font color=&quot;#660066&quot;&gt;&lt;b&gt;&lt;br&gt;&lt;/b&gt;&lt;/font&gt;&lt;/div&gt;&lt;div style=&quot;text-align: left;&quot;&gt;&lt;font color=&quot;#660066&quot;&gt;&lt;u&gt;Кадастровая стоимость:&lt;/u&gt;&lt;b&gt; 1 000 000 руб&lt;/b&gt;&lt;/font&gt;&lt;/div&gt;" style="html=1;shadow=0;dashed=0;shape=mxgraph.bootstrap.rrect;rSize=5;strokeColor=#000000;strokeWidth=1;fillColor=none;whiteSpace=wrap;align=center;verticalAlign=middle;spacingLeft=0;fontStyle=0;fontSize=20;spacing=5;gradientColor=#b3b3b3;fontColor=#000000;" parent="1" vertex="1">
                    <mxGeometry x="3602.5" y="1306" width="415.5" height="254" as="geometry"/>
                </mxCell>
            </root>
        </mxGraphModel>
    </diagram>
</mxfile>